<svg id="Layer_1" data-name="Layer 1" xmlns="http://www.w3.org/2000/svg" viewBox="0 0 512 512"><defs><style>.cls-1{fill:#ffc84d;}.cls-2{fill:#ffb232;}.cls-3{fill:#6b287c;}</style></defs><title>bell-filled</title><path class="cls-1" d="M359.33,458.67H152.68c-20.47,0-34.92-21.4-28.45-42.12l6.6-21.14a336,336,0,0,0,15.22-100.11V282.67c0-64.8,49.22-117.33,109.94-117.33h0c60.72,0,109.94,52.53,109.94,117.33v12.63A336,336,0,0,0,381.17,395.4l6.6,21.14C394.25,437.27,379.79,458.67,359.33,458.67Z"/><path class="cls-2" d="M387.77,416.55l-6.6-21.14a336,336,0,0,1-15.22-100.11V282.67c0-64.8-49.22-117.33-109.94-117.33a103.49,103.49,0,0,0-34.71,6c53.74,15.08,93.38,67.27,93.38,129.36v14.4A383,383,0,0,0,332,429.21l7.53,24.11a39,39,0,0,1,1.23,5.35h18.55C379.79,458.67,394.25,437.27,387.77,416.55Z"/><path class="cls-1" d="M213.33,458.67a42.67,42.67,0,0,0,85.33,0"/><path class="cls-3" d="M365.92,282.61a10.67,10.67,0,0,0-10.67,10.67v2q0,7.28.33,14.56a10.67,10.67,0,0,0,10.65,10.18h.49A10.67,10.67,0,0,0,376.9,308.9q-.31-6.8-.31-13.59v-2A10.67,10.67,0,0,0,365.92,282.61Z"/><path class="cls-3" d="M398,413.35l-6.61-21.13a320.38,320.38,0,0,1-11-47.32,10.67,10.67,0,0,0-21.27,1.24,11.08,11.08,0,0,0,.12,1.61,342.73,342.73,0,0,0,10.58,46.92H218.67a10.67,10.67,0,1,0,0,21.33H376.44l1.16,3.7a23,23,0,0,1-3.29,20.42,18.62,18.62,0,0,1-15,7.88H152.69a18.62,18.62,0,0,1-15-7.88,23,23,0,0,1-3.3-20.4l1.17-3.72h46a10.67,10.67,0,1,0,0-21.33H142.2a346,346,0,0,0,14.55-99.36V282.67C156.75,223.85,201.27,176,256,176c26.41,0,51.26,11,70,31a108.46,108.46,0,0,1,26.65,51.42,10.67,10.67,0,0,0,20.86-4.45,129.8,129.8,0,0,0-31.93-61.55A120.4,120.4,0,0,0,304,165.15V133.33a10.67,10.67,0,0,0-10.67-10.67H288A32,32,0,0,0,266.67,92.5V10.67a10.67,10.67,0,0,0-21.33,0V92.5A32,32,0,0,0,224,122.67h-5.33A10.67,10.67,0,0,0,208,133.33v31.92c-42.68,19.73-72.59,64.93-72.59,117.41v12.64a324.85,324.85,0,0,1-14.76,96.92L114,413.37a44.42,44.42,0,0,0,6.49,39.4,39.73,39.73,0,0,0,32.18,16.57h51a53.34,53.34,0,0,0,104.52,0h51a39.73,39.73,0,0,0,32.18-16.57A44.42,44.42,0,0,0,398,413.35ZM256,112a10.68,10.68,0,0,1,10.67,10.67H245.33A10.68,10.68,0,0,1,256,112Zm-26.67,32h53.33v13.78A115.13,115.13,0,0,0,256,154.67a113.88,113.88,0,0,0-26.67,3.16ZM256,490.67a32,32,0,0,1-30.17-21.33h60.33A32,32,0,0,1,256,490.67Z"/></svg>