<svg id="Layer_1" data-name="Layer 1" xmlns="http://www.w3.org/2000/svg" viewBox="0 0 512 512"><defs><style>.cls-1{fill:#f4536a;}.cls-2{fill:#ee374b;}.cls-3{fill:#bf3455;}.cls-4{fill:#6b287c;}</style></defs><title>festive-bow-filled</title><rect class="cls-1" x="202.6" y="120.02" width="106.65" height="143.98" rx="6.88" ry="6.88"/><path class="cls-2" d="M272.59,120h-32a36.66,36.66,0,0,1,36.66,36.66v70.66A36.66,36.66,0,0,1,240.59,264h32a36.66,36.66,0,0,0,36.66-36.66V156.68A36.66,36.66,0,0,0,272.59,120Z"/><path class="cls-1" d="M202.6,227.34V156.68a36.6,36.6,0,0,1,1.22-9.25C87,168.33,28.4,113.86,14.34,98.22c23.52,36.63,17.77,80.46,17.77,80.46C28,207.37,17.61,242.4,13,257.07a33.12,33.12,0,0,0-.32,20.21c17.67,53.15,150.22-3.19,198.87-26A36.48,36.48,0,0,1,202.6,227.34Z"/><path class="cls-1" d="M499,257.07c-4.59-14.66-15-49.7-19.09-78.39,0,0-5.74-43.83,17.77-80.46C483.59,113.87,425,168.38,308,147.4a36.59,36.59,0,0,1,1.23,9.28v70.66a36.48,36.48,0,0,1-8.93,23.93c48.55,22.73,181.29,79.2,199,26A33.12,33.12,0,0,0,499,257.07Z"/><path class="cls-2" d="M499.3,277.28c-6.1,18.35-25.91,23.64-51.23,21.77a28.07,28.07,0,0,0,13.25-16,33.13,33.13,0,0,0-.32-20.21c-4.59-14.66-15-49.7-19.09-78.39a140.62,140.62,0,0,1,4.45-50.1c28-12.69,44.65-28.77,51.3-36.17-23.52,36.63-17.77,80.46-17.77,80.46C484,207.37,494.4,242.4,499,257.07A33.12,33.12,0,0,1,499.3,277.28ZM202.6,227.34V156.68a36.6,36.6,0,0,1,1.22-9.25,285.86,285.86,0,0,1-40.69,4.68c-.06.94-.18,1.85-.18,2.81V242a46.07,46.07,0,0,0,8.53,26.8c14.73-6,27.82-11.83,37.83-16.48a38.84,38.84,0,0,1-6.7-21.88Z"/><path class="cls-3" d="M209.28,135.61C166.75,88.28,107.69,56,57.87,56c-27.5,0-39.49,9.82-44.64,19.39a22.57,22.57,0,0,0,4.29,26.7c20,19.73,78.68,64.45,186.31,45.3A36.45,36.45,0,0,1,209.28,135.61Z"/><path class="cls-3" d="M498.78,75.41C493.62,65.85,481.64,56,454.13,56c-49.86,0-109,32.29-151.5,79.68A36.47,36.47,0,0,1,308,147.39c107.73,19.22,166.5-25.53,186.47-45.27A22.57,22.57,0,0,0,498.78,75.41Z"/><path class="cls-1" d="M301.61,251.86A352.78,352.78,0,0,0,314.67,456a569.79,569.79,0,0,1,31.9-66.58,234.71,234.71,0,0,0,64,20.79A265.57,265.57,0,0,1,372.1,280.83C344.32,271.11,318.35,259.67,301.61,251.86Z"/><path class="cls-1" d="M209.32,252.36c-17,7.9-43,19.27-70.61,28.87a265.55,265.55,0,0,1-38.45,128.95,234.7,234.7,0,0,0,64-20.79A569.69,569.69,0,0,1,196.15,456,352.78,352.78,0,0,0,209.32,252.36Z"/><path class="cls-4" d="M23.27,221.15a10.67,10.67,0,0,0,12.87-7.87c2-8.23,3.53-15.46,4.72-22.11a10.67,10.67,0,0,0-21-3.76c-1.11,6.23-2.57,13.06-4.46,20.87A10.67,10.67,0,0,0,23.27,221.15Z"/><path class="cls-4" d="M364,95.38a10.61,10.61,0,0,0,5.51-1.54,217.32,217.32,0,0,1,21.1-11.28,10.67,10.67,0,0,0-9-19.35,239.8,239.8,0,0,0-23.17,12.39A10.67,10.67,0,0,0,364,95.38Z"/><path class="cls-4" d="M490.47,177.29c-.05-.4-5-40.34,16.17-73.32.11-.17.2-.35.3-.52a33.19,33.19,0,0,0,1.24-33c-6.1-11.43-20.42-25.05-54-25.05a146.55,146.55,0,0,0-35.9,4.7,10.66,10.66,0,0,0,5.24,20.67,125.2,125.2,0,0,1,30.66-4c12.72,0,29.16,2.39,35.25,13.81a11.71,11.71,0,0,1-.32,11.33,135.09,135.09,0,0,1-26.84,22.06c-28.21,17.65-75.72,35.18-146.2,24l-.3-.65a267,267,0,0,1,24.63-22.84,10.66,10.66,0,1,0-13.48-16.53,288,288,0,0,0-24.27,22.24,47.11,47.11,0,0,0-30-10.77H239.26a47.1,47.1,0,0,0-29.95,10.71C164.77,74.4,106.38,45.36,57.87,45.36c-33.53,0-47.89,13.59-54,25a33.24,33.24,0,0,0,1.44,33.44l.1.18c8.75,13.63,14.17,30.12,16.09,49a10.67,10.67,0,0,0,21.3-.78,10.21,10.21,0,0,0-.05-1.06,155.51,155.51,0,0,0-2.92-18.37c30.31,18.88,79.91,37.11,152.13,27.3v67.24a47,47,0,0,0,4.15,19.35c-77.17,34.94-137.41,49.36-162.35,38.63-5.68-2.44-9.14-6.07-10.89-11.34a22.69,22.69,0,0,1,.35-13.72c.93-3,2.07-6.67,3.33-11A10.67,10.67,0,1,0,6,243.36c-1.19,4.17-2.29,7.7-3.16,10.48a43.58,43.58,0,0,0-.28,26.8c3.68,11.07,11.54,19.47,22.74,24.28,8.21,3.53,18.16,5.07,29.3,5.07,21.3,0,46.84-5.62,72.4-13.62A254.69,254.69,0,0,1,91.16,404.61a10.66,10.66,0,0,0,10.92,16.07,244.74,244.74,0,0,0,57.66-17.4,556.77,556.77,0,0,1,26.51,56.67,10.67,10.67,0,0,0,9.9,6.69h.13a10.66,10.66,0,0,0,9.86-6.93A363.19,363.19,0,0,0,229,344.18a10.67,10.67,0,0,0-10.31-11,10.53,10.53,0,0,0-11,10.31,341.7,341.7,0,0,1-12.85,82.4c-6.56-14.29-13.68-28.26-21.27-41.74a10.69,10.69,0,0,0-14-4.32A217.72,217.72,0,0,1,121,394.57a278,278,0,0,0,28-105.63c17.48-6.3,34.38-13.29,49.3-19.89l3.37-1.49a329,329,0,0,1,5.26,39.94A10.66,10.66,0,0,0,228.22,306c-.79-11.29-2.15-22.6-4-33.84a47.1,47.1,0,0,0,15.08,2.48h33.33a47.16,47.16,0,0,0,14-2.11,362.7,362.7,0,0,0,18.1,187.15,10.67,10.67,0,0,0,9.85,6.94h.14a10.66,10.66,0,0,0,9.89-6.68,564,564,0,0,1,26.53-56.67,247,247,0,0,0,57.64,17.4,10.67,10.67,0,0,0,10.94-16.07A254.71,254.71,0,0,1,383.77,296c26,8.19,52,14,73.6,14,11.13,0,21.1-1.54,29.31-5.06,11.2-4.82,19.07-13.21,22.76-24.34a43.51,43.51,0,0,0-.28-26.72C504.87,240.15,494.47,205.27,490.47,177.29ZM22.62,80.48c6.14-11.39,22.56-13.78,35.26-13.78,43.78,0,97.37,27.45,138.3,70.45-.12.27-.25.53-.36.8-72.28,11.4-120.35-7.35-148.21-25.43A132.5,132.5,0,0,1,22.91,91.77,11.71,11.71,0,0,1,22.62,80.48ZM239.26,253.33a25.94,25.94,0,0,1-19.55-8.89l-.09-.12a26,26,0,0,1-6.24-14.64v-.14c-.06-.74-.1-1.49-.1-2.24v-70.6c0-.53,0-1.06.05-1.59,0-.06,0-.12,0-.19a24.75,24.75,0,0,1,.8-4.74l0-.08h0a25.69,25.69,0,0,1,3.85-8.34l.12-.19a26,26,0,0,1,21.14-10.89h33.33a26,26,0,0,1,21.29,11.1v0a26.15,26.15,0,0,1,3.81,8.25v0a26.18,26.18,0,0,1,.88,6.58v70.66c0,.73,0,1.46-.1,2.19,0,.07,0,.13,0,.2q-.1,1.1-.3,2.19v0a26,26,0,0,1-5.91,12.33l-.14.18a25.94,25.94,0,0,1-19.52,8.86ZM389.81,394.57a220,220,0,0,1-38.5-14.74,10.66,10.66,0,0,0-14,4.33c-7.57,13.47-14.68,27.43-21.25,41.73a340.29,340.29,0,0,1-6.78-158.8c15.64,7,33.74,14.61,52.56,21.44A278,278,0,0,0,389.81,394.57Zm99.37-120.66c-1.78,5.34-5.25,9-10.93,11.4-25,10.74-85.25-3.7-162.48-38.67A47,47,0,0,0,319.84,230s0-.09,0-.13q.06-1.24.07-2.5V160.08c69.82,9.53,118.54-7.24,149.15-25.43,1.09-.64,2.15-1.28,3.19-1.92a148.55,148.55,0,0,0-2.92,47.46c4.24,29.65,15,65.87,19.47,80.07l0,0C489.9,263.7,490.83,268.84,489.18,273.91Z"/></svg>