<svg id="Layer_1" data-name="Layer 1" xmlns="http://www.w3.org/2000/svg" viewBox="0 0 512 512"><defs><style>.cls-1{fill:#ffc84d;}.cls-2{fill:#ffb232;}.cls-3{fill:#f0f7ff;}.cls-4{fill:#e1eaf4;}.cls-5{fill:#f4536a;}.cls-6{fill:#6b287c;}</style></defs><title>cake-filled</title><rect class="cls-1" x="234.67" y="125.33" width="42.67" height="106.67"/><rect class="cls-2" x="256" y="125.33" width="21.33" height="106.67"/><rect class="cls-1" x="90.67" y="258.67" width="330.67" height="218.67"/><path class="cls-2" d="M384,258.67H90.67V389.74a26.68,26.68,0,0,0,16-24.41v-48a10.67,10.67,0,0,1,21.33,0v5.33a32,32,0,0,0,64,0v-5.33a10.67,10.67,0,0,1,21.33,0v21.33a32,32,0,0,0,64,0V317.33a10.67,10.67,0,0,1,21.33,0v48a32,32,0,0,0,64,0v-48a10.67,10.67,0,0,1,21.33,0v160h37.33V258.67Z"/><path class="cls-3" d="M74.67,258.67V344a16,16,0,0,0,16,16h0a16,16,0,0,0,16-16V296A21.33,21.33,0,0,1,128,274.67h0A21.33,21.33,0,0,1,149.33,296v5.33a21.33,21.33,0,0,0,21.33,21.33h0A21.33,21.33,0,0,0,192,301.33V296a21.33,21.33,0,0,1,21.33-21.33h0A21.33,21.33,0,0,1,234.67,296v21.33A21.33,21.33,0,0,0,256,338.67h0a21.33,21.33,0,0,0,21.33-21.33V296a21.33,21.33,0,0,1,21.33-21.33h0A21.33,21.33,0,0,1,320,296v48a21.33,21.33,0,0,0,21.33,21.33h0A21.33,21.33,0,0,0,362.67,344V296A21.33,21.33,0,0,1,384,274.67h0A21.33,21.33,0,0,1,405.33,296v21.33a16,16,0,0,0,16,16h0a16,16,0,0,0,16-16V258.67A26.67,26.67,0,0,0,410.67,232H101.33A26.67,26.67,0,0,0,74.67,258.67Z"/><path class="cls-4" d="M410.67,232h-16v45.63A21.24,21.24,0,0,1,405.33,296v21.33a16,16,0,0,0,32,0V258.67A26.67,26.67,0,0,0,410.67,232Z"/><path class="cls-5" d="M277.33,72a21.33,21.33,0,1,1-42.67,0c0-16,21.33-37.33,21.33-37.33S277.33,56,277.33,72Z"/><circle class="cls-5" cx="213.33" cy="210.67" r="21.33"/><circle class="cls-5" cx="170.67" cy="210.67" r="21.33"/><circle class="cls-5" cx="128" cy="210.67" r="21.33"/><circle class="cls-5" cx="341.33" cy="210.67" r="21.33"/><circle class="cls-5" cx="384" cy="210.67" r="21.33"/><circle class="cls-5" cx="298.67" cy="210.67" r="21.33"/><circle class="cls-5" cx="256" cy="210.67" r="21.33"/><path class="cls-6" d="M21.33,466.67H10.67a10.67,10.67,0,1,0,0,21.33H21.33a10.67,10.67,0,1,0,0-21.33Z"/><path class="cls-6" d="M442.67,466.67H432V408a10.67,10.67,0,1,0-21.33,0v58.67H101.33V368.43a26.7,26.7,0,0,0,16-24.43V296a10.67,10.67,0,0,1,21.33,0v5.33a32,32,0,0,0,64,0V296A10.67,10.67,0,1,1,224,296v21.33a32,32,0,0,0,64,0V296a10.67,10.67,0,1,1,21.33,0v48a32,32,0,0,0,64,0V296a10.67,10.67,0,0,1,21.33,0v21.33a26.7,26.7,0,0,0,16,24.43v29.33a10.67,10.67,0,0,0,21.33,0V341.77a26.7,26.7,0,0,0,16-24.43V258.67a37.38,37.38,0,0,0-33.89-37.17,32,32,0,0,0-51.44-34.66,31.93,31.93,0,0,0-42.67,0,31.93,31.93,0,0,0-32-6.34V125.33a10.67,10.67,0,0,0-10.67-10.67H266.67v-12.5A32,32,0,0,0,288,72c0-19.43-20.37-40.79-24.46-44.87a10.66,10.66,0,0,0-15.08,0C244.38,31.21,224,52.57,224,72a32,32,0,0,0,21.33,30.17v12.5H234.67A10.67,10.67,0,0,0,224,125.33V180.5a31.93,31.93,0,0,0-32,6.34,31.93,31.93,0,0,0-42.67,0A32,32,0,0,0,97.89,221.5,37.38,37.38,0,0,0,64,258.67V344a26.7,26.7,0,0,0,16,24.43v98.23H58.67a10.67,10.67,0,0,0,0,21.33h384a10.67,10.67,0,0,0,0-21.33ZM256,50.85c5.57,7.2,10.67,15.73,10.67,21.15a10.67,10.67,0,0,1-21.33,0C245.33,66.54,250.38,58.07,256,50.85ZM384,200a10.67,10.67,0,1,1-10.67,10.67A10.68,10.68,0,0,1,384,200Zm-42.67,0a10.67,10.67,0,1,1-10.67,10.67A10.68,10.68,0,0,1,341.33,200Zm-42.67,0A10.67,10.67,0,1,1,288,210.67,10.68,10.68,0,0,1,298.67,200Zm-53.33,10.67A10.67,10.67,0,1,1,256,221.33,10.68,10.68,0,0,1,245.33,210.67ZM266.67,136v44.5a31.92,31.92,0,0,0-21.33,0V136Zm-53.33,64a10.67,10.67,0,1,1-10.67,10.67A10.68,10.68,0,0,1,213.33,200Zm-42.67,0A10.67,10.67,0,1,1,160,210.67,10.68,10.68,0,0,1,170.67,200ZM128,200a10.67,10.67,0,1,1-10.67,10.67A10.68,10.68,0,0,1,128,200ZM85.33,258.67a16,16,0,0,1,16-16H410.67a16,16,0,0,1,16,16v58.67a5.33,5.33,0,0,1-10.67,0V296a32,32,0,0,0-64,0v48a10.67,10.67,0,0,1-21.33,0V296a32,32,0,0,0-64,0v21.33a10.67,10.67,0,1,1-21.33,0V296a32,32,0,0,0-64,0v5.33a10.67,10.67,0,1,1-21.33,0V296a32,32,0,0,0-64,0v48a5.33,5.33,0,0,1-10.67,0Z"/><path class="cls-6" d="M501.33,466.67H480A10.67,10.67,0,0,0,480,488h21.33a10.67,10.67,0,0,0,0-21.33Z"/></svg>