<svg id="Layer_1" data-name="Layer 1" xmlns="http://www.w3.org/2000/svg" viewBox="0 0 512 512"><defs><style>.cls-1{fill:#f0f7ff;}.cls-2{fill:#e1eaf4;}.cls-3{fill:#f4536a;}.cls-4{fill:#ee374b;}.cls-5{fill:#6b287c;}</style></defs><title>lollipop-stick-filled</title><path class="cls-1" d="M234.46,153.32a44.17,44.17,0,0,1-60.24,16.1h0a43.92,43.92,0,0,1-16.14-60.08l17.79-30.73c37-63.92,120.72-87.72,184.18-49.75C421.72,65.77,442.62,145.61,406.52,208L249.42,479.34a44.17,44.17,0,0,1-60.24,16.1h0A43.92,43.92,0,0,1,173,435.36l156.33-270c11.73-20.27,6.69-46.8-12.8-59.83A44.22,44.22,0,0,0,253.75,120Z"/><path class="cls-2" d="M270.41,103.66A43.73,43.73,0,0,0,253.75,120l-19.29,33.33a44.15,44.15,0,0,1-59.74,16.35,43.77,43.77,0,0,0,16.68-16.35L210.69,120A44.19,44.19,0,0,1,270.41,103.66Zm89.64-74.79a129.54,129.54,0,0,0-87.81-16.41A127.65,127.65,0,0,1,317,28.87c61.67,36.9,82.57,116.74,46.47,179.09L206.35,479.34a43.77,43.77,0,0,1-16.68,16.35,44.15,44.15,0,0,0,59.74-16.35L406.52,208C442.62,145.61,421.72,65.77,360.05,28.87Z"/><path class="cls-3" d="M224.52,29.76a135.56,135.56,0,0,0-48.59,48.75L169.11,90.3l44.32,25.55,32.05,18.45L253.74,120a38.66,38.66,0,0,1,3.73-5.39c.43-.53.85-1.07,1.33-1.6a42.32,42.32,0,0,1,4.69-4.59,30.42,30.42,0,0,1,2.93-2.24,27.44,27.44,0,0,1,3.09-2,39.23,39.23,0,0,1,6.56-3.2ZM386.38,49.6c-1.12-1.12-2.24-2.24-3.36-3.31l-3.52-3.2C378.33,42,377.1,41,375.88,40s-2.51-2-3.79-3-2.56-1.92-3.89-2.83-2.67-1.87-4-2.72-2.72-1.76-4.16-2.61c-3.15-1.87-6.35-3.63-9.6-5.17-1.44-.75-2.93-1.44-4.43-2.08q-2.72-1.2-5.44-2.24c-1.65-.64-3.31-1.23-5-1.81-1.55-.53-3.15-1.07-4.69-1.49-1.92-.59-3.89-1.12-5.87-1.6-1.44-.37-2.93-.69-4.37-1a.68.68,0,0,0-.32-.05l-5.17,14.4L289.9,98.08a44.24,44.24,0,0,1,26.67,7.41A41.83,41.83,0,0,1,331,122l35-41.23L389.64,53C388.62,51.84,387.5,50.72,386.38,49.6Zm-5.28,90.24-46-4.69a46.89,46.89,0,0,1-5.71,30.19l-7.52,12.91,44,25.33,32.43,18.67,8.27-14.29c.75-1.28,1.49-2.61,2.19-3.89,1.17-2.24,2.29-4.53,3.36-6.77.21-.48.48-1,.69-1.49,1.07-2.4,2.08-4.8,2.93-7.25.53-1.28,1-2.61,1.44-3.95s.91-2.67,1.28-4,.8-2.67,1.17-4,.69-2.67,1-4,.64-2.67.91-4.05.53-2.67.75-4,.48-2.72.64-4.05c.48-3.31.85-6.56,1-9.87.11-1.39.16-2.72.21-4.05.05-.8.05-1.55.05-2.35ZM266.76,375l-44.11-25.39-33.12,57.12,44.11,25.39L266,450.77,299,393.6Zm66.13-114.29-44.11-25.39-33.07,57.17,44.11,25.39,32.27,18.56,33.07-57.12Z"/><path class="cls-4" d="M266.76,375l-33.12,57.12L266,450.77,299,393.6Zm66.13-114.29-33.07,57.17,32.27,18.56,33.07-57.12ZM381.1,139.84a130,130,0,0,1-15.25,63.73l32.43,18.67,8.27-14.29c.75-1.28,1.49-2.61,2.19-3.89,1.17-2.24,2.29-4.53,3.36-6.77.21-.48.48-1,.69-1.49,1.07-2.4,2.08-4.8,2.93-7.25.53-1.28,1-2.61,1.44-3.95s.91-2.67,1.28-4,.8-2.67,1.17-4,.69-2.67,1-4,.64-2.67.91-4.05.53-2.67.75-4,.48-2.72.64-4.05c.48-3.31.85-6.56,1-9.87.11-1.39.16-2.72.21-4.05.05-.8.05-1.55.05-2.35Zm5.28-90.24c-1.12-1.12-2.24-2.24-3.36-3.31l-3.52-3.2C378.33,42,377.1,41,375.88,40s-2.51-2-3.79-3-2.56-1.92-3.89-2.83-2.67-1.87-4-2.72-2.72-1.76-4.16-2.61c-3.15-1.87-6.35-3.63-9.6-5.17-1.44-.75-2.93-1.44-4.43-2.08q-2.72-1.2-5.44-2.24c-1.65-.64-3.31-1.23-5-1.81-1.55-.53-3.15-1.07-4.69-1.49-1.92-.59-3.89-1.12-5.87-1.6-1.44-.37-2.93-.69-4.37-1a.68.68,0,0,0-.32-.05l-5.17,14.4c.64.32,1.23.69,1.87,1.07a131,131,0,0,1,49,51.89L389.64,53C388.62,51.84,387.5,50.72,386.38,49.6Zm-173,66.24,32.05,18.45L253.74,120a38.66,38.66,0,0,1,3.73-5.39c.43-.53.85-1.07,1.33-1.6a42.32,42.32,0,0,1,4.69-4.59c1-.8,1.92-1.55,2.93-2.24a27.44,27.44,0,0,1,3.09-2,5.28,5.28,0,0,1,.91-.59A44.27,44.27,0,0,0,213.43,115.84Z"/><path class="cls-5" d="M365.51,19.7A138.91,138.91,0,0,0,290,.06a10.67,10.67,0,1,0,.57,21.32,123.77,123.77,0,0,1,15.31.62L282.09,88.26c-.6.11-1.21.24-1.81.37l-40-55.24A128.27,128.27,0,0,1,256.66,27,10.67,10.67,0,1,0,250.3,6.68a146.71,146.71,0,0,0-83.65,66.59L148.83,104a54.74,54.74,0,0,0,94.84,54.68L263,125.36a33.58,33.58,0,0,1,47.68-11c14.52,9.7,18.69,29.74,9.49,45.62L163.81,430a54.5,54.5,0,0,0,4,60.64h-32a10.67,10.67,0,1,0,0,21.33h176a10.67,10.67,0,1,0,0-21.33H254.64a54.91,54.91,0,0,0,4-6l90-155.46a10.67,10.67,0,1,0-18.46-10.69l-1,1.81h0l-.92,1.58-57.88-33.3,22.41-38.71,57.86,33.36-.85,1.48h0l-1.07,1.85a10.67,10.67,0,0,0,18.46,10.69l48.64-84C454.52,146.3,432,59.45,365.51,19.7Zm43.41,155.4c-.17.6-.35,1.19-.52,1.79s-.31,1-.48,1.57l-.32,1c-.25.78-.51,1.56-.78,2.34l-.13.37a120.48,120.48,0,0,1-9.33,20.32l-3,5.2-57.88-33.33,2.13-3.68A57.17,57.17,0,0,0,346.1,147l66.78,6.79a120,120,0,0,1-3.81,20.76ZM343.8,125.33c-.15-.48-.32-1-.48-1.44l46.14-54.24A122.65,122.65,0,0,1,413,132.36Zm-12-97.77.11,0q1.85.62,3.67,1.31l.42.16q1.65.63,3.29,1.3l.66.27q1.5.63,3,1.3l.86.39c.9.42,1.8.85,2.69,1.3l1,.51c.82.42,1.63.85,2.44,1.28l1.18.63c.74.41,1.46.83,2.19,1.26l1.25.72q2.74,1.64,5.39,3.42l.56.39c.67.46,1.34.92,2,1.38l.9.65L365,45l1.12.86,1.3,1L368.76,48l1,.83,1.54,1.31.69.59q.91.8,1.81,1.61l.29.27,1,1-43.37,51a52.69,52.69,0,0,0-4.29-4.11l-.2-.17q-1-.87-2.1-1.69l-.27-.21c-.79-.59-1.59-1.17-2.42-1.73-.32-.21-.65-.41-1-.61s-.82-.53-1.24-.78-.76-.44-1.14-.66L318,93.92c-.44-.24-.89-.46-1.33-.69l-.93-.47c-.53-.26-1.06-.5-1.6-.74l-.59-.26q-1-.42-2-.8l0,0a54.14,54.14,0,0,0-7-2.17l22.5-62.69C328.66,26.55,330.25,27,331.82,27.56ZM260.25,97.49q-1,.74-2.06,1.54l-.37.28q-.9.72-1.77,1.47l-.52.45c-.51.46-1,.93-1.51,1.4l-.65.62c-.44.43-.86.88-1.29,1.33-.25.26-.5.52-.74.78s-.74.84-1.11,1.27-.53.61-.79.93-.67.86-1,1.29-.51.65-.76,1c-.39.54-.77,1.09-1.14,1.65-.16.23-.33.46-.48.7q-.8,1.22-1.53,2.48l-2.93,5.06L183.7,86.39,185.11,84q.74-1.27,1.5-2.53h0c.36-.6.74-1.19,1.11-1.78l.67-1.05.81-1.23c.39-.59.79-1.18,1.19-1.76l.42-.6a125.59,125.59,0,0,1,31-30.84l38.54,53.27Zm-80.7,62.7a33.23,33.23,0,0,1-12.25-45.5l5.7-9.84,57.89,33.33L225.21,148A33.52,33.52,0,0,1,179.54,160.19Zm82.49,276-57.86-33.32,22.39-38.67,57.86,33.31Zm-79.75,4.49,11.2-19.35,57.89,33.33L240.2,474a33.4,33.4,0,1,1-57.92-33.3ZM317.52,340.4l-22.39,38.68-57.88-33.33,22.38-38.66Zm-14.1-108.95,22.37-38.64,57.89,33.33-22.39,38.66Z"/><path class="cls-5" d="M98.49,490.67H87.83a10.67,10.67,0,1,0,0,21.33H98.49a10.67,10.67,0,0,0,0-21.33Z"/><path class="cls-5" d="M359.82,490.67H349.16a10.67,10.67,0,1,0,0,21.33h10.67a10.67,10.67,0,0,0,0-21.33Z"/></svg>