<svg id="Layer_1" data-name="Layer 1" xmlns="http://www.w3.org/2000/svg" viewBox="0 0 512 512"><defs><style>.cls-1{fill:#74c666;}.cls-2{fill:#54af47;}.cls-3{fill:#f4536a;}.cls-4{fill:#ffc84d;}.cls-5{fill:#ffb232;}.cls-6{fill:#6b287c;}</style></defs><title>candle-filled</title><path class="cls-1" d="M138.67,437.33H373.33a0,0,0,0,1,0,0V441A60.33,60.33,0,0,1,313,501.33H199A60.33,60.33,0,0,1,138.67,441v-3.67A0,0,0,0,1,138.67,437.33Z"/><path class="cls-2" d="M320,437.33a64,64,0,0,1-64,64h53.33a64,64,0,0,0,64-64Z"/><path class="cls-3" d="M293.33,74.67a37.33,37.33,0,1,1-74.67,0c0-32,37.33-64,37.33-64S293.33,42.67,293.33,74.67Z"/><path class="cls-4" d="M314.67,437.33H197.33V170.67a21.33,21.33,0,0,1,21.33-21.33h74.67a21.33,21.33,0,0,1,21.33,21.33Z"/><path class="cls-5" d="M293.33,149.33h-16v288h37.33V170.67A21.33,21.33,0,0,0,293.33,149.33Z"/><path class="cls-4" d="M186.67,170.67V216a24,24,0,0,0,24,24h0a24,24,0,0,0,24-24V202.67A21.33,21.33,0,0,1,256,181.33h0a21.33,21.33,0,0,1,21.33,21.33v34.67a24,24,0,0,0,24,24h0a24,24,0,0,0,24-24V170.67A21.33,21.33,0,0,0,304,149.33H208A21.33,21.33,0,0,0,186.67,170.67Z"/><path class="cls-5" d="M304,149.33H288V257.28a24,24,0,0,0,37.33-19.95V170.67A21.33,21.33,0,0,0,304,149.33Z"/><path class="cls-6" d="M197.33,336.43A10.67,10.67,0,0,0,208,325.76V309.33a10.67,10.67,0,1,0-21.33,0v16.43A10.67,10.67,0,0,0,197.33,336.43Z"/><path class="cls-6" d="M501.33,490.67h-16a10.67,10.67,0,0,0,0,21.33h16a10.67,10.67,0,1,0,0-21.33Z"/><path class="cls-6" d="M448,490.67H361.52A74.43,74.43,0,0,0,384,437.33a10.67,10.67,0,0,0-10.67-10.67h-48V262.31a34.56,34.56,0,0,0,10.67-25V170.67a32,32,0,0,0-32-32H266.67V121.46A48.07,48.07,0,0,0,304,74.67a57.83,57.83,0,0,0-1.94-14.52,10.67,10.67,0,0,0-20.65,5.36,36.64,36.64,0,0,1,1.26,9.16,26.67,26.67,0,1,1-53.33,0c0-17.76,15.64-37.84,26.64-49.24a148,148,0,0,1,10,11.44,10.67,10.67,0,0,0,16.79-13.16A162.38,162.38,0,0,0,263,2.58a10.66,10.66,0,0,0-13.9,0C247.38,4,208,38.18,208,74.67a48.07,48.07,0,0,0,37.33,46.79v17.21H208a32,32,0,0,0-32,32V216a34.56,34.56,0,0,0,10.67,25v31.45a10.67,10.67,0,1,0,21.33,0V250.55c.88.07,1.77.11,2.67.11A34.71,34.71,0,0,0,245.33,216V202.67a10.67,10.67,0,0,1,21.33,0v34.67A34.71,34.71,0,0,0,301.33,272c.9,0,1.79,0,2.67-.11V426.67H208v-64a10.67,10.67,0,0,0-21.33,0v64h-48A10.67,10.67,0,0,0,128,437.33a74.4,74.4,0,0,0,22.49,53.33H80A10.67,10.67,0,1,0,80,512H448a10.67,10.67,0,1,0,0-21.33ZM288,237.33V202.67a32,32,0,0,0-64,0V216a13.33,13.33,0,1,1-26.67,0V170.67A10.68,10.68,0,0,1,208,160h96a10.68,10.68,0,0,1,10.67,10.67v66.67a13.33,13.33,0,0,1-26.67,0ZM150.41,448H361.59a53.42,53.42,0,0,1-52.26,42.67H202.67A53.42,53.42,0,0,1,150.41,448Z"/><path class="cls-6" d="M42.67,490.67h-32a10.67,10.67,0,1,0,0,21.33h32a10.67,10.67,0,0,0,0-21.33Z"/></svg>