<svg id="Layer_1" data-name="Layer 1" xmlns="http://www.w3.org/2000/svg" viewBox="0 0 512 512"><defs><style>.cls-1{fill:#f4536a;}.cls-2{fill:#ee374b;}.cls-3{fill:#ffc84d;}.cls-4{fill:#fff;}.cls-5{fill:#6b287c;}</style></defs><title>fireplace-filled</title><rect class="cls-1" x="208" y="10.67" width="96" height="186.67"/><rect class="cls-2" x="256" y="10.67" width="48" height="186.67"/><rect class="cls-1" x="58.67" y="197.33" width="394.67" height="58.67"/><rect class="cls-2" x="410.67" y="197.33" width="42.67" height="58.67"/><rect class="cls-1" x="90.67" y="256" width="330.67" height="245.33"/><rect class="cls-2" x="378.67" y="256" width="42.67" height="245.33"/><polyline class="cls-3" points="234.24 368 346.67 368 346.67 501.33 165.33 501.33 165.33 368 197.33 368"/><path class="cls-4" d="M269.87,501.33A34.13,34.13,0,0,0,304,467.2c0-22.76-34.13-51.2-34.13-51.2S246,438.65,238.22,457.09a41.42,41.42,0,0,1-8-17.86c-5.54,5.93-22.19,24.71-22.19,36.5,0,14.14,10.75,25.6,24,25.6Z"/><path class="cls-5" d="M421.33,448.21A10.67,10.67,0,0,0,432,437.55V421.12a10.67,10.67,0,0,0-21.33,0v16.43A10.67,10.67,0,0,0,421.33,448.21Z"/><path class="cls-5" d="M21.33,490.67H10.67a10.67,10.67,0,1,0,0,21.33H21.33a10.67,10.67,0,1,0,0-21.33Z"/><path class="cls-5" d="M501.33,490.67H490.67a10.67,10.67,0,1,0,0,21.33h10.67a10.67,10.67,0,1,0,0-21.33Z"/><path class="cls-5" d="M453.33,512a10.67,10.67,0,1,0,0-21.33H432V474.45a10.67,10.67,0,1,0-21.33,0v16.21H357.33V448h21.33a10.67,10.67,0,0,0,0-21.33H357.33V368a10.67,10.67,0,0,0-10.67-10.67H234.24a10.67,10.67,0,0,0,0,21.33H336v112H308a44.5,44.5,0,0,0,6.66-23.47c0-27-34.08-56.16-38-59.39a10.67,10.67,0,0,0-14.17.46A222.49,222.49,0,0,0,239.6,434.2a10.66,10.66,0,0,0-17.2-2.25c-11.43,12.23-25.07,29.76-25.07,43.79a37.39,37.39,0,0,0,3.1,14.93H176v-112h21.33a10.67,10.67,0,1,0,0-21.33h-32A10.67,10.67,0,0,0,154.67,368v80H133.33a10.67,10.67,0,0,0,0,21.33h21.33v21.33H101.33V447.79a10.67,10.67,0,0,0-21.33,0v42.88H58.67a10.67,10.67,0,1,0,0,21.33ZM218.67,475.73c0-2.7,2.86-8.56,8.32-16a45.91,45.91,0,0,0,2.94,4.08A10.67,10.67,0,0,0,248,461.24c4.15-9.81,14.53-22.2,22.23-30.45,10.86,10.65,23.05,26,23.05,36.41a23.49,23.49,0,0,1-23.47,23.47H232C224.65,490.67,218.67,484,218.67,475.73Z"/><path class="cls-5" d="M276.91,266.67h16.43a10.67,10.67,0,1,0,0-21.33H276.91a10.67,10.67,0,1,0,0,21.33Z"/><path class="cls-5" d="M453.33,186.67H314.67v-176A10.67,10.67,0,0,0,304,0H208a10.67,10.67,0,0,0-10.67,10.67v176H165.12a10.67,10.67,0,1,0,0,21.33H442.67v37.33H330.24a10.67,10.67,0,0,0,0,21.33h80.43v16H352A10.67,10.67,0,1,0,352,304h16v5.33a10.67,10.67,0,1,0,21.33,0V304h21.33v53.33H389.33a10.67,10.67,0,0,0,0,21.33h21.33v5.55a10.67,10.67,0,0,0,21.33,0V266.67h21.33A10.67,10.67,0,0,0,464,256V197.33A10.67,10.67,0,0,0,453.33,186.67ZM218.67,149.33v-16H256v16Zm74.67-90.67v16h-16v-16ZM218.67,112V96h16v16ZM256,112V96h37.33v16Zm0-53.33v16H218.67v-16Zm21.33,74.67h16v16h-16Zm16-96H256v-16h37.33Zm-58.67-16v16h-16v-16Zm-16,149.33h16v16h-16Zm37.33,16v-16h37.33v16Z"/><path class="cls-5" d="M58.67,266.67H80V410.88a10.67,10.67,0,1,0,21.33,0V394.67h21.33a10.67,10.67,0,0,0,0-21.33H101.33v-32H144a10.67,10.67,0,0,0,10.67-10.67V304h10.67a10.67,10.67,0,1,0,0-21.33h-64v-16H240a10.67,10.67,0,1,0,0-21.33H69.33V208h58.88a10.67,10.67,0,0,0,0-21.33H58.67A10.67,10.67,0,0,0,48,197.33V256A10.67,10.67,0,0,0,58.67,266.67ZM133.33,304v16h-32V304Z"/><path class="cls-5" d="M256,288a10.67,10.67,0,0,0-10.67,10.67v16H234.67a10.67,10.67,0,1,0,0,21.33H288a10.67,10.67,0,1,0,0-21.33H266.67v-16A10.67,10.67,0,0,0,256,288Z"/></svg>