<svg id="Layer_1" data-name="Layer 1" xmlns="http://www.w3.org/2000/svg" viewBox="0 0 512 512"><defs><style>.cls-1{fill:#ffc84d;}.cls-2{fill:#ffb232;}.cls-3{fill:#f0f7ff;}.cls-4{fill:#e1eaf4;}.cls-5{fill:#f4536a;}.cls-6{fill:#6b287c;}</style></defs><title>gingerbread-man-filled</title><path class="cls-1" d="M482.8,214.69h0c-9.32-30.41-41.84-47.59-72.62-38.39l-71.09,21.26a112,112,0,1,0-166.21,0L101.8,176.3c-30.79-9.21-63.3,8-72.63,38.39h0C19.85,245.1,37.25,277.21,68,286.42l60.59,18.12a31.75,31.75,0,0,1,14.73,51.41l-42.52,48.29c-19.77,22.45-20.64,56.68-.39,78.7a56.15,56.15,0,0,0,83.84-.8l47.95-54.45a31.75,31.75,0,0,1,47.66,0l46.81,53.16c20.65,23.45,56.81,27.14,80.35,6.6a58.1,58.1,0,0,0,5.33-82L368.75,355.9a31.75,31.75,0,0,1,14.73-51.41l60.46-18.08C474.72,277.21,492.13,245.1,482.8,214.69Z"/><path class="cls-2" d="M428.77,274a58.1,58.1,0,0,1-22.16,12.44l-60.46,18.08a31.76,31.76,0,0,0-14.73,51.41l43.66,49.58a57.53,57.53,0,0,1,9.57,15.07l15.45.08,2.08-26.77-33.43-38a31.76,31.76,0,0,1,14.73-51.41l60.46-18.08c.42-.13.81-.31,1.22-.45l.91-1.87Z"/><path class="cls-2" d="M194.9,427.68,162.39,464.6l.21,2.7L194,467.2l.27,3.57h0l38-43.11A31.93,31.93,0,0,1,237.4,423,31.77,31.77,0,0,0,194.9,427.68Z"/><path class="cls-2" d="M335.44,187.49l14.64-4.38A111.76,111.76,0,0,0,256,10.67a112.23,112.23,0,0,0-18.67,1.68,111.78,111.78,0,0,1,83,157.27C315.57,179.73,324.75,190.68,335.44,187.49Z"/><path class="cls-3" d="M394.07,181.12H394m88.8,33.55c-9.33-30.4-41.87-47.57-72.64-38.35l-16.11,4.8,25,14.61-13.6,28.32,27.15,15.84-13.65,28.32,27.15,15.89-.91,1.87C475.18,276.37,492,244.69,482.81,214.66Zm-70.4,190.82-10.24-11.63-2.08,26.77-31.36-.16-2.45,31.25-31.36-.11-2.51,31.31h-3.79c20.91,21.6,55.57,24.43,78.45,4.53A58.13,58.13,0,0,0,412.41,405.49ZM194,467.2l-31.41.11L160.15,436l-31.36.11-2.45-31.25-26.19.16c-19.09,22.45-19.68,56.11.32,77.87a56.13,56.13,0,0,0,83.84-.8l10-11.31v-.05ZM86.17,217.81,113.32,202l-12.48-25.92c-30.51-8.59-62.45,8.53-71.68,38.61a56.86,56.86,0,0,0-2.51,16.69A57.58,57.58,0,0,0,68,286.4l16.53,5,1.71-1L72.68,262l27.15-15.84Z"/><path class="cls-4" d="M482.73,248.28c-.05.16-.12.32-.17.48-.51,1.58-1.07,3.14-1.71,4.67-.13.31-.3.61-.43.93-.6,1.35-1.22,2.7-1.92,4-.25.46-.54.9-.81,1.36-.64,1.12-1.29,2.23-2,3.31-.4.6-.85,1.16-1.27,1.75-.64.89-1.27,1.79-2,2.64s-1.21,1.38-1.82,2.06-1.18,1.36-1.82,2c-.79.8-1.64,1.56-2.49,2.32-.51.46-1,.95-1.54,1.4-1,.87-2.13,1.68-3.24,2.48-.39.28-.75.58-1.15.85-1.32.91-2.7,1.75-4.1,2.55l-.61.37A58.47,58.47,0,0,1,445.16,286l.91-1.87L428.77,274a57,57,0,0,0,16.7-59.29h0a57.74,57.74,0,0,0-37.19-37.81l1.89-.56a58.59,58.59,0,0,1,37.71,1.37c.53.2,1.08.36,1.61.58l.22.1a57.66,57.66,0,0,1,33.09,36.32h0A56.58,56.58,0,0,1,482.73,248.28ZM412.4,405.48l-10.23-11.62-2.08,26.77-15.45-.08a58.1,58.1,0,0,1-14.9,66.88,53.89,53.89,0,0,1-17.67,10.23A58.19,58.19,0,0,0,380.29,500l.69-.12a54.5,54.5,0,0,0,13.15-4.12c.37-.17.73-.36,1.09-.54a53.61,53.61,0,0,0,5-2.79c.41-.25.82-.5,1.22-.77a54.11,54.11,0,0,0,5.62-4.25A58.1,58.1,0,0,0,412.4,405.48Zm-218.12,65.3h0L194,467.2l-31.41.11-.21-2.7L147,482.13a56.32,56.32,0,0,1-23.57,15.94,56.18,56.18,0,0,0,16.1,3.14h.13a56.24,56.24,0,0,0,15.95-1.6l.71-.2a55.94,55.94,0,0,0,6.71-2.23c.34-.14.68-.25,1-.4a55.82,55.82,0,0,0,6.92-3.51c.23-.14.45-.31.69-.45a56.25,56.25,0,0,0,5.63-4c.46-.37.92-.74,1.37-1.13a57.18,57.18,0,0,0,5.7-5.56Z"/><polygon class="cls-5" points="261.32 250.66 314.65 224 314.65 277.33 261.32 250.66"/><polygon class="cls-5" points="250.65 250.66 197.32 224 197.32 277.33 250.65 250.66"/><rect class="cls-5" x="239.99" y="234.66" width="32" height="32"/><path class="cls-6" d="M493,211.53c-11-35.94-49.56-56.34-85.89-45.44L365,178.66a122.75,122.75,0,0,0,6.2-98.21,10.67,10.67,0,1,0-20,7.3,101.32,101.32,0,0,1-20,102.64,10.67,10.67,0,0,0,11,17.37l50.55-15.1,12.47,7.3-9.35,19.46A10.67,10.67,0,0,0,400,233.26l18.64,10.87-9.37,19.44a10.67,10.67,0,0,0,4.22,13.84l7.85,4.6-40.93,12.25a42.42,42.42,0,0,0-19.72,68.68l30.46,34.59-1,12.39-21.44-.11h-.06a10.67,10.67,0,0,0-10.64,9.83L356.42,441,335,441h0a10.67,10.67,0,0,0-10.63,9.82L323.47,461l-35.58-40.41a42.4,42.4,0,0,0-63.64,0l-31.62,35.91-20.17.07-1.68-21.39a10.67,10.67,0,0,0-10.64-9.83h0l-21.46.07L137,404.07a10.67,10.67,0,0,0-10.64-9.83h-.07l-2.44,0L151.35,363a42.42,42.42,0,0,0-19.67-68.68l-37-11.07-8.16-17,18.65-10.89a10.67,10.67,0,0,0,4.23-13.85l-9.37-19.44,18.63-10.87a10.66,10.66,0,0,0,4.23-13.84l-2-4.19,48.93,14.61a10.67,10.67,0,0,0,11-17.37A101.34,101.34,0,0,1,290.9,27.46a10.67,10.67,0,0,0,7.3-20A122.61,122.61,0,0,0,146.94,178.66L104.86,166.1C68.54,155.21,30,175.59,19,211.53a67.47,67.47,0,0,0-3,19.82c0,30.28,19.69,56.5,49,65.26l60.6,18.14a21.08,21.08,0,0,1,9.76,34.14l-42.5,48.26c-23.92,27.15-24,67.13-.23,93A67.19,67.19,0,0,0,142,512h.67a67.18,67.18,0,0,0,49.65-22.82l47.95-54.45a21.06,21.06,0,0,1,31.62,0l46.82,53.17c24.91,28.33,67.71,31.73,95.41,7.6a68.8,68.8,0,0,0,6.32-97.05l-43.68-49.6a21.09,21.09,0,0,1,9.83-34.15L447,296.62a68.22,68.22,0,0,0,41-33.33A67.16,67.16,0,0,0,493,211.53ZM37.32,231.36a46,46,0,0,1,2-13.56c7.08-23,30.59-36.78,54.09-32.52l6,12.44L80.8,208.6a10.67,10.67,0,0,0-4.23,13.85l9.38,19.44L67.31,252.76a10.67,10.67,0,0,0-4.24,13.82L67,274.74A46.55,46.55,0,0,1,37.32,231.36ZM142.45,490.66a45.63,45.63,0,0,1-34.13-15c-14.88-16.18-15.81-41.55-2.94-60l11.1-.07L118.16,437a10.67,10.67,0,0,0,10.64,9.83h0l21.46-.07L152,468.14A10.67,10.67,0,0,0,162.6,478h0l10.9,0A45.76,45.76,0,0,1,142.45,490.66Zm273.61-43.78a46.9,46.9,0,0,1-16,32.53c-16,14-39.58,14.24-56.84,2l1.53-19.13,21.48.07a10.66,10.66,0,0,0,10.67-9.83l1.68-21.37,21.44.11h.06a10.66,10.66,0,0,0,10.61-9.66A47.13,47.13,0,0,1,416.06,446.89Zm53.09-193.68a46.84,46.84,0,0,1-20.65,20L432.8,264l9.38-19.46a10.67,10.67,0,0,0-4.23-13.85L419.3,219.8l9.34-19.45a10.67,10.67,0,0,0-4.22-13.83l-2.89-1.69c22.46-2.61,44.31,10.9,51.08,33A46,46,0,0,1,469.15,253.21Z"/><path class="cls-6" d="M319.77,43.86a110.36,110.36,0,0,1,15,15,10.67,10.67,0,1,0,16.47-13.56,131.74,131.74,0,0,0-17.94-17.93,10.67,10.67,0,0,0-13.55,16.47Z"/><circle class="cls-6" cx="223.99" cy="101.33" r="16"/><circle class="cls-6" cx="287.99" cy="101.33" r="16"/><path class="cls-6" d="M301.81,145.8a10.67,10.67,0,0,0-14.8,2.94,37.3,37.3,0,0,1-62.05,0,10.67,10.67,0,1,0-17.74,11.85,58.64,58.64,0,0,0,97.53,0A10.67,10.67,0,0,0,301.81,145.8Z"/><path class="cls-6" d="M272,224H240a10.65,10.65,0,0,0-9,4.92l-28.92-14.46A10.67,10.67,0,0,0,186.65,224v53.33a10.67,10.67,0,0,0,15.44,9.54L231,272.41a10.65,10.65,0,0,0,9,4.92h32a10.65,10.65,0,0,0,9-4.92l28.92,14.46a10.67,10.67,0,0,0,15.44-9.54V224a10.67,10.67,0,0,0-15.44-9.54L281,228.92A10.65,10.65,0,0,0,272,224Zm-64,36.08V241.26l18.82,9.41ZM261.32,256H250.65V245.33h10.67ZM304,241.26v18.82l-18.82-9.41Z"/><circle class="cls-6" cx="255.99" cy="314.66" r="16"/><circle class="cls-6" cx="255.99" cy="368" r="16"/></svg>