<svg id="Layer_1" data-name="Layer 1" xmlns="http://www.w3.org/2000/svg" viewBox="0 0 512 512"><defs><style>.cls-1{fill:#74c666;}.cls-2{fill:#54af47;}.cls-3{fill:#f4536a;}.cls-4{fill:#ee374b;}.cls-5{fill:#6b287c;}</style></defs><title>berries-filled</title><path class="cls-1" d="M181.34,405.33a74.21,74.21,0,0,1,10.25-37.62,74.16,74.16,0,0,1-68.3-83.47,51.84,51.84,0,0,1-32,3.12,14.88,14.88,0,0,0-17.55,10.13c-4,12.18-11.71,22.4-22.68,28.73a48.91,48.91,0,0,1-24.75,6.48c-10.48,0-18.11,9.57-14.84,20.31,6.87,22.58,7.16,45.38,1.39,65A18.6,18.6,0,0,0,26.1,441c19.9,4.82,39.5,16.47,55.62,33.71,7.67,8.2,19.78,6.39,25-2.69a48.91,48.91,0,0,1,18-18.19c11-6.33,23.65-7.86,36.22-5.28a14.88,14.88,0,0,0,17.55-10.13,56.61,56.61,0,0,1,5.82-12.36A74.55,74.55,0,0,1,181.34,405.33Z"/><path class="cls-1" d="M485.71,332.71A48.91,48.91,0,0,1,461,326.22c-11-6.33-18.63-16.55-22.68-28.73a14.88,14.88,0,0,0-17.55-10.13,51.84,51.84,0,0,1-32-3.12,74.16,74.16,0,0,1-68.3,83.47,74,74,0,0,1,7.26,58.38,56.61,56.61,0,0,1,5.82,12.36,14.88,14.88,0,0,0,17.55,10.13c12.57-2.58,25.25-1.05,36.22,5.28a48.91,48.91,0,0,1,18,18.19c5.23,9.09,17.34,10.9,25,2.69,16.12-17.24,35.72-28.9,55.62-33.71a18.6,18.6,0,0,0,13.27-23c-5.78-19.64-5.49-42.45,1.39-65C503.82,342.28,496.2,332.69,485.71,332.71Z"/><path class="cls-2" d="M500.55,353c-6.87,22.58-7.16,45.38-1.39,65a18.6,18.6,0,0,1-13.27,23,100.44,100.44,0,0,0-18.08,6.38,17.46,17.46,0,0,0-.65-4.27c-5.78-19.64-5.49-42.45,1.39-65,3.27-10.74-4.36-20.33-14.84-20.31A48.91,48.91,0,0,1,429,351.32c-11-6.33-18.63-16.55-22.68-28.73a14.88,14.88,0,0,0-17.55-10.13c-.68.14-1.36.23-2,.35a71.64,71.64,0,0,0,2-28.57,51.84,51.84,0,0,0,32,3.12,14.88,14.88,0,0,1,17.55,10.13c4,12.18,11.71,22.4,22.68,28.73a48.91,48.91,0,0,0,24.75,6.48C496.2,332.69,503.82,342.28,500.55,353ZM122.67,293.34a75,75,0,0,1,.61-9.1,51.84,51.84,0,0,1-32,3.12,14.88,14.88,0,0,0-17.55,10.13,55.36,55.36,0,0,1-8.26,15.86,50.49,50.49,0,0,0,25.82-4,74.16,74.16,0,0,0,68.3,83.47,73.56,73.56,0,0,0-8.21,54.62,57.88,57.88,0,0,1,9.57,1.15,14.88,14.88,0,0,0,17.55-10.13,56.61,56.61,0,0,1,5.82-12.36,74,74,0,0,1,7.26-58.38A74.62,74.62,0,0,1,122.67,293.34Z"/><path class="cls-1" d="M182.31,204.86a47.9,47.9,0,0,1-2.84,16.05A74.06,74.06,0,0,1,256,247.25a74.06,74.06,0,0,1,76.54-26.33,47.9,47.9,0,0,1-2.84-16.05c0-12.66,5-24.41,13.54-34a14.88,14.88,0,0,0,0-20.27c-8.52-9.6-13.54-21.34-13.54-34a48.91,48.91,0,0,1,6.76-24.67c5.25-9.07.77-20.47-10.17-23-23-5.34-42.89-16.49-57-31.31a18.6,18.6,0,0,0-26.54,0c-14.12,14.82-34,26-57,31.31-10.94,2.54-15.43,13.94-10.17,23a48.91,48.91,0,0,1,6.76,24.67c0,12.66-5,24.41-13.54,34a14.88,14.88,0,0,0,0,20.27C177.29,180.45,182.31,192.2,182.31,204.86Z"/><path class="cls-2" d="M343.23,150.59c-8.52-9.6-13.54-21.34-13.54-34a48.91,48.91,0,0,1,6.76-24.67c5.25-9.07.77-20.47-10.17-23-23-5.34-42.89-16.49-57-31.31a18.6,18.6,0,0,0-26.54,0q-2.7,2.83-5.67,5.47c13.57,12.09,31.27,21.18,51.34,25.84,10.94,2.54,15.43,13.94,10.17,23a48.91,48.91,0,0,0-6.76,24.67c0,12.66,5,24.41,13.54,34a14.88,14.88,0,0,1,0,20.27c-8.52,9.6-13.54,21.34-13.54,34a47.9,47.9,0,0,0,2.84,16.05,73.64,73.64,0,0,0-57.59,9.28A75.3,75.3,0,0,1,256,247.25a74.06,74.06,0,0,1,76.54-26.33,47.9,47.9,0,0,1-2.84-16.05c0-12.66,5-24.41,13.54-34A14.88,14.88,0,0,0,343.23,150.59Z"/><circle class="cls-3" cx="197.34" cy="293.34" r="74.66"/><path class="cls-4" d="M200.69,218.67a58.63,58.63,0,1,1-77.85,77.85,74.61,74.61,0,1,0,77.85-77.85Z"/><circle class="cls-3" cx="314.66" cy="293.34" r="74.66"/><path class="cls-4" d="M318,218.84a58.63,58.63,0,1,1-77.85,77.85A74.61,74.61,0,1,0,318,218.84Z"/><circle class="cls-3" cx="256" cy="405.33" r="74.66"/><path class="cls-4" d="M259.18,330.67a58.63,58.63,0,1,1-77.85,77.85,74.61,74.61,0,1,0,77.85-77.85Z"/><path class="cls-5" d="M486.43,366.31a10.67,10.67,0,1,0,21,3.58,108.27,108.27,0,0,1,3.32-13.79A26.06,26.06,0,0,0,485.7,322a38.79,38.79,0,0,1-19.39-5c-8.32-4.83-14.51-12.75-17.9-22.87a25.6,25.6,0,0,0-29.8-17.24,42.68,42.68,0,0,1-20.34-.53,85.37,85.37,0,0,0-8.21-23,10.67,10.67,0,0,0-18.84,10,64,64,0,0,1-45.41,92.94A85.27,85.27,0,0,0,256.51,320a63.95,63.95,0,0,1,93.54-80,10.67,10.67,0,0,0,11.88-17.72,84.37,84.37,0,0,0-20.8-10.13,35.71,35.71,0,0,1-.77-7.36c0-9.64,3.75-19,10.87-27a25.71,25.71,0,0,0,0-34.41c-7.1-8-10.85-17.28-10.85-26.88a38.06,38.06,0,0,1,5.34-19.36,26,26,0,0,0-17-38.7A116.21,116.21,0,0,1,316,54.82a10.67,10.67,0,1,0-7.18,20.09,135.88,135.88,0,0,0,15.07,4.4,4.71,4.71,0,0,1,3.35,7.23A59,59,0,0,0,319,116.6c0,14.91,5.61,29.1,16.22,41a4.29,4.29,0,0,1,0,6.11C324.65,175.7,319,189.92,319,204.86c0,1.09,0,2.18.09,3.28l-1.74-.08a83.26,83.26,0,0,0-50.73,14.71V122.68a10.67,10.67,0,0,0-21.33,0V222.77a83.23,83.23,0,0,0-51.68-14.67l-.79,0c.06-1.09.09-2.17.09-3.26,0-14.95-5.61-29.17-16.22-41.09a4.28,4.28,0,0,1,0-6.11c10.62-12,16.24-26.15,16.24-41.06a59,59,0,0,0-8.2-30,4.72,4.72,0,0,1,3.38-7.28c24.52-5.74,46.64-18,62.28-34.37,2.75-2.89,8.41-2.86,11.13,0a108.59,108.59,0,0,0,11.54,10.47,10.67,10.67,0,0,0,13.18-16.78A86.3,86.3,0,0,1,277,30.19a29.32,29.32,0,0,0-42,0c-12.83,13.46-31.19,23.52-51.66,28.32a26,26,0,0,0-17,38.75,38,38,0,0,1,5.32,19.33c0,9.6-3.75,18.9-10.87,26.91a25.69,25.69,0,0,0,0,34.41c7.1,8,10.85,17.3,10.85,26.94a35.71,35.71,0,0,1-.77,7.37,85.62,85.62,0,0,0-57.15,64.15,42.76,42.76,0,0,1-20.31.52A25.62,25.62,0,0,0,63.61,294.1a43.71,43.71,0,0,1-6,12,10.67,10.67,0,0,0,17.27,12.53,65.88,65.88,0,0,0,9-17.74,4.23,4.23,0,0,1,5.29-3,65.82,65.82,0,0,0,23,.7c0,.53.09,1,.13,1.58s.08,1.14.14,1.71c0,.38.09.75.13,1.12a85,85,0,0,0,21.84,47.93L87.83,377.75a10.67,10.67,0,0,0,10.67,18.48l53.33-30.79a84.92,84.92,0,0,0,24.08,10.46A84.62,84.62,0,0,0,172,390.34v.07q-.3,1.67-.53,3.36c0,.31-.08.61-.12.92-.11.91-.22,1.83-.31,2.75-.06.62-.1,1.24-.14,1.86s-.1,1.33-.13,2c-.06,1.34-.1,2.68-.1,4q0,1.27,0,2.53c0,.53,0,1.06.07,1.59,0,.28,0,.55,0,.83a85.63,85.63,0,0,0,2,14.33A65,65,0,0,0,168.4,435a4.3,4.3,0,0,1-5.31,3.09c-15.71-3.18-30.83-1-43.75,6.5a59.37,59.37,0,0,0-21.86,22.09,4.82,4.82,0,0,1-3.66,2.56,4.93,4.93,0,0,1-4.31-1.79C72.4,449.13,50.77,436,28.58,430.64A7.93,7.93,0,0,1,23,421.05c6.44-21.76,5.94-47-1.41-71.13a5,5,0,0,1,.58-4.66,4.88,4.88,0,0,1,4.09-1.91,58.52,58.52,0,0,0,10.12-.85,10.67,10.67,0,0,0-3.7-21,37.1,37.1,0,0,1-6.42.53,26.06,26.06,0,0,0-25.08,34.1C7.37,376.3,7.86,397.2,2.58,415a29.25,29.25,0,0,0,21,36.34c18.16,4.42,36,15.31,50.38,30.7a26.14,26.14,0,0,0,22.35,8.4A26.08,26.08,0,0,0,116,477.36,38.23,38.23,0,0,1,130,463.1c8.31-4.81,18.27-6.21,28.8-4.06a25.68,25.68,0,0,0,24.8-8.42A85.53,85.53,0,0,0,210,477.19a10.67,10.67,0,1,0,11.52-18,64,64,0,1,1,69,0,10.67,10.67,0,0,0,11.52,18,85.53,85.53,0,0,0,26.34-26.57,25.65,25.65,0,0,0,24.8,8.42c10.52-2.15,20.48-.74,28.78,4A38.31,38.31,0,0,1,396,477.37a26,26,0,0,0,22.68,13.28,26.54,26.54,0,0,0,19.38-8.6c14.31-15.35,32.2-26.24,50.32-30.66a29.25,29.25,0,0,0,21-36.37,92.91,92.91,0,0,1-2.58-11.53,10.66,10.66,0,1,0-21.06,3.36A113.91,113.91,0,0,0,488.95,421a7.71,7.71,0,0,1-.82,6,7.62,7.62,0,0,1-4.74,3.65c-22.16,5.4-43.78,18.48-60.87,36.81a5,5,0,0,1-4.34,1.82,4.81,4.81,0,0,1-3.65-2.55,59.45,59.45,0,0,0-21.89-22.11c-12.9-7.44-28-9.67-43.73-6.49a4.27,4.27,0,0,1-5.28-3,66.2,66.2,0,0,0-4.49-10.53,85.62,85.62,0,0,0,2-14.33c0-.28,0-.56,0-.84,0-.53.05-1.05.07-1.58q0-1.27,0-2.53c0-1.34,0-2.69-.1-4,0-.67-.09-1.33-.13-2s-.08-1.24-.14-1.86c-.08-.92-.19-1.84-.31-2.75,0-.31-.07-.61-.12-.92q-.23-1.69-.53-3.36v-.07a84.63,84.63,0,0,0-3.89-14.44,84.91,84.91,0,0,0,24.08-10.46l53.33,30.79a10.67,10.67,0,1,0,10.67-18.48l-46.58-26.89a85,85,0,0,0,21.84-47.93c0-.37.09-.75.13-1.12.06-.57.1-1.14.14-1.71s.1-1,.13-1.58a65.81,65.81,0,0,0,23-.7,4.24,4.24,0,0,1,5.3,3.06c5.06,15.16,14.55,27.11,27.51,34.64a59.91,59.91,0,0,0,30,7.85,4.88,4.88,0,0,1,4.09,1.91,5,5,0,0,1,.6,4.6A130.83,130.83,0,0,0,486.43,366.31Zm-300.23-10A64,64,0,1,1,242.43,248a85,85,0,0,0-7.85,74.73A85.58,85.58,0,0,0,186.2,356.34Z"/><path class="cls-5" d="M260.55,469.16a51,51,0,0,1-9.09,0,10.67,10.67,0,1,0-1.9,21.25c2.12.19,4.25.26,6.44.26s4.32-.07,6.44-.26a10.67,10.67,0,1,0-1.9-21.25Z"/></svg>