<svg id="Layer_1" data-name="Layer 1" xmlns="http://www.w3.org/2000/svg" viewBox="0 0 512 512"><defs><style>.cls-1{fill:#f4536a;}.cls-2{fill:#ee374b;}.cls-3{fill:#74c666;}.cls-4{fill:#54af47;}.cls-5{fill:#ffc84d;}.cls-6{fill:#ffb232;}.cls-7{fill:#6b287c;}</style></defs><title>baubles-filled</title><circle class="cls-1" cx="393.98" cy="341.33" r="106.67" transform="translate(-84.66 547.81) rotate(-64.24)"/><path class="cls-2" d="M427.69,240.3a96,96,0,1,1-135,135,106.63,106.63,0,1,0,135-135Z"/><circle class="cls-3" cx="116.64" cy="341.33" r="106.67" transform="translate(-57.92 25.67) rotate(-10.08)"/><path class="cls-4" d="M150.66,240.3a96,96,0,1,1-135,135,106.63,106.63,0,1,0,135-135Z"/><circle class="cls-5" cx="255.31" cy="394.67" r="106.67"/><path class="cls-6" d="M289,293.33a96,96,0,1,1-135,135,106.63,106.63,0,1,0,135-135Z"/><path class="cls-7" d="M460.41,410.65a89.62,89.62,0,0,1-7.74,6.66c-2.31,1.79-4.41,3.28-6.42,4.56a10.67,10.67,0,1,0,11.48,18c2.55-1.63,5.17-3.48,7.93-5.62a109.36,109.36,0,0,0,9.52-8.18,10.67,10.67,0,0,0-14.76-15.4Z"/><path class="cls-7" d="M9.79,332.61A10.65,10.65,0,0,0,22.21,324a89.87,89.87,0,0,1,2.38-9.92c.85-2.85,1.65-5.22,2.54-7.46a10.67,10.67,0,0,0-19.83-7.86c-1.11,2.8-2.14,5.83-3.14,9.2a110.81,110.81,0,0,0-2.92,12.2A10.67,10.67,0,0,0,9.79,332.61Z"/><path class="cls-7" d="M221.76,484.62a89.88,89.88,0,0,1-9.36-4.08c-2.61-1.3-4.87-2.55-6.91-3.8a10.67,10.67,0,1,0-11.2,18.16c2.58,1.59,5.38,3.14,8.51,4.7a109.53,109.53,0,0,0,11.5,5,10.67,10.67,0,0,0,7.46-20Z"/><path class="cls-7" d="M116.85,37.33a10.67,10.67,0,0,0,10.67-10.67v-16a10.67,10.67,0,0,0-21.33,0v16A10.67,10.67,0,0,0,116.85,37.33Z"/><path class="cls-7" d="M255.31,133.33A10.67,10.67,0,0,0,266,122.67v-16a10.67,10.67,0,0,0-21.33,0v16A10.67,10.67,0,0,0,255.31,133.33Z"/><path class="cls-7" d="M394,64a10.67,10.67,0,0,0,10.67-10.67V10.67a10.67,10.67,0,0,0-21.33,0V53.33A10.67,10.67,0,0,0,394,64Z"/><path class="cls-7" d="M255.31,80A10.67,10.67,0,0,0,266,69.33V10.67a10.67,10.67,0,0,0-21.33,0V69.33A10.67,10.67,0,0,0,255.31,80Z"/><path class="cls-7" d="M445,235.66q-1.49-.72-3-1.39V202.67A10.67,10.67,0,0,0,431.31,192H426a32,32,0,0,0-21.33-30.17V90.67a10.67,10.67,0,0,0-21.33,0v71.17A32,32,0,0,0,362,192h-5.33A10.67,10.67,0,0,0,346,202.67v31.67a117.09,117.09,0,0,0-42.67,32.51V256a10.67,10.67,0,0,0-10.67-10.67h-5.33A32,32,0,0,0,266,215.17V160a10.67,10.67,0,1,0-21.33,0v55.17a32,32,0,0,0-21.33,30.17H218A10.67,10.67,0,0,0,207.31,256v10.77a118.54,118.54,0,0,0-42.67-32.55V202.67A10.67,10.67,0,0,0,154,192h-5.33a32.05,32.05,0,0,0-21.13-30.1V64a10.67,10.67,0,1,0-21.33,0v97.76A32,32,0,0,0,84.64,192H79.31a10.67,10.67,0,0,0-10.67,10.67v31.64a117.28,117.28,0,0,0-40.87,30.46,10.67,10.67,0,0,0,16.18,13.91,96.07,96.07,0,0,1,105.79-27.51,10.57,10.57,0,0,0,1.12.42,96.59,96.59,0,0,1,48.06,40.22,117.14,117.14,0,0,0-54.39,141.39,96.19,96.19,0,0,1-11.09,2.66c-41.54,7.38-83.69-13.72-102.54-51.37a95.06,95.06,0,0,1-8.77-26.37c0-.27-.11-.55-.14-.8A10.67,10.67,0,1,0,.73,359.1c.08.91.23,1.89.39,2.76a116.25,116.25,0,0,0,10.72,32.21c20,39.86,61.34,64.57,105.07,64.57a115.88,115.88,0,0,0,20.26-1.78,118.73,118.73,0,0,0,16.24-4.09,116.42,116.42,0,0,0,11,16,10.67,10.67,0,1,0,16.52-13.49,96,96,0,1,1,170.41-60.61c0,42.19-28.16,80-68.53,92a94.92,94.92,0,0,1-27.47,4c-.28,0-.59,0-.87,0a10.67,10.67,0,0,0-1.89,21.25c.89.08,1.87.09,2.76.09a117,117,0,0,0,101.82-59.3,117.22,117.22,0,0,0,64.08,2.73,10.67,10.67,0,1,0-5-20.74,96,96,0,0,1-50.18-1.53,116.14,116.14,0,0,0,6.59-38.49,117.42,117.42,0,0,0-60.91-102.85,96.12,96.12,0,0,1,124-36.94c38,18.33,59.82,60.13,53.05,101.69a94.88,94.88,0,0,1-8.32,26.49c-.12.26-.25.53-.38.77a10.67,10.67,0,0,0,18.31,10.95c.46-.77.9-1.64,1.29-2.45a116.18,116.18,0,0,0,10.17-32.39C518.08,309.17,491.41,258.07,445,235.66ZM116.64,181.33A10.68,10.68,0,0,1,127.31,192H106A10.68,10.68,0,0,1,116.64,181.33ZM96.12,225.81c-2.06.37-4.11.81-6.14,1.28V213.33h53.33V227A117.21,117.21,0,0,0,96.12,225.81Zm159.19,8.86A10.68,10.68,0,0,1,266,245.33H244.64A10.68,10.68,0,0,1,255.31,234.67Zm-26.67,45.73V266.67H282v13.73a117.77,117.77,0,0,0-53.33,0ZM394,181.33A10.68,10.68,0,0,1,404.64,192H383.31A10.68,10.68,0,0,1,394,181.33Zm-26.67,45.8v-13.8h53.33v13.73A117,117,0,0,0,367.31,227.13Z"/></svg>