<svg id="Layer_1" data-name="Layer 1" xmlns="http://www.w3.org/2000/svg" viewBox="0 0 512 512"><defs><style>.cls-1{fill:#f4536a;}.cls-2{fill:#ee374b;}.cls-3{fill:#ffc84d;}.cls-4{fill:#ffb232;}.cls-5{fill:#fff;}.cls-6{fill:#6b287c;}</style></defs><title>gift-filled</title><path class="cls-1" d="M416,218.67H96a10.67,10.67,0,0,0-10.67,10.67v48A10.67,10.67,0,0,0,96,288h21.33V501.33H394.67V288H416a10.67,10.67,0,0,0,10.67-10.67v-48A10.67,10.67,0,0,0,416,218.67Z"/><polygon class="cls-2" points="131.69 288 117.33 288 117.33 330.67 224 330.67 224 288 144 288 131.69 288"/><polygon class="cls-2" points="302.36 288 288 288 288 330.67 394.67 330.67 394.67 288 314.67 288 302.36 288"/><rect class="cls-3" x="224" y="218.67" width="64" height="282.67"/><polygon class="cls-4" points="279.38 288 288 288 288 330.67 224 330.67 224 288 272 288 279.38 288"/><path class="cls-5" d="M256,218.67H218.67A37.33,37.33,0,1,1,256,181.33Z"/><path class="cls-5" d="M256,181.33a37.33,37.33,0,1,1,37.33,37.33H256Z"/><path class="cls-6" d="M394.67,378.67A10.67,10.67,0,0,0,384,389.33v16a10.67,10.67,0,1,0,21.33,0v-16A10.67,10.67,0,0,0,394.67,378.67Z"/><path class="cls-6" d="M21.33,490.67H10.67a10.67,10.67,0,1,0,0,21.33H21.33a10.67,10.67,0,1,0,0-21.33Z"/><path class="cls-6" d="M432,490.67H405.33v-48a10.67,10.67,0,1,0-21.33,0v48H298.67v-192H384V352a10.67,10.67,0,1,0,21.33,0V298.67H416a21.36,21.36,0,0,0,21.33-21.33v-48A21.36,21.36,0,0,0,416,208H333.22A48,48,0,0,0,256,151.21,48,48,0,0,0,178.78,208H96a21.36,21.36,0,0,0-21.33,21.33v48A21.36,21.36,0,0,0,96,298.67h10.67v192h-48a10.67,10.67,0,1,0,0,21.33H432a10.67,10.67,0,1,0,0-21.33ZM256,229.33h21.33v48H234.67v-48Zm-21.33,69.33h42.67v192H234.67ZM416,277.33H298.67v-48H416ZM293.33,154.67a26.67,26.67,0,1,1,0,53.33H266.67V181.33A26.7,26.7,0,0,1,293.33,154.67ZM192,181.33a26.67,26.67,0,1,1,53.33,0V208H218.67A26.7,26.7,0,0,1,192,181.33ZM128,298.67h16a10.67,10.67,0,1,0,0-21.33H96v-48H213.33v48h-32a10.67,10.67,0,0,0,0,21.33h32v192H128Z"/><path class="cls-6" d="M501.33,490.67h-32a10.67,10.67,0,0,0,0,21.33h32a10.67,10.67,0,1,0,0-21.33Z"/><path class="cls-6" d="M444.88,104.46a10.66,10.66,0,0,0-15.08,0l-8.46,8.46-8.46-8.46a10.67,10.67,0,1,0-15.08,15.08l8.46,8.46-8.46,8.46a10.67,10.67,0,1,0,15.08,15.08l8.46-8.46,8.46,8.46a10.67,10.67,0,1,0,15.08-15.08L436.42,128l8.46-8.46A10.66,10.66,0,0,0,444.88,104.46Z"/><path class="cls-6" d="M141.79,50.21a10.66,10.66,0,0,0,15.08,0l8.46-8.46,8.46,8.46a10.67,10.67,0,0,0,15.08-15.08l-8.46-8.46,8.46-8.46A10.67,10.67,0,0,0,173.79,3.13l-8.46,8.46-8.46-8.46a10.67,10.67,0,1,0-15.08,15.08l8.46,8.46-8.46,8.46A10.66,10.66,0,0,0,141.79,50.21Z"/><circle class="cls-6" cx="106.67" cy="128" r="10.67"/><circle class="cls-6" cx="288" cy="74.67" r="10.67"/></svg>