<svg id="Layer_1" data-name="Layer 1" xmlns="http://www.w3.org/2000/svg" viewBox="0 0 512 512"><defs><style>.cls-1{fill:#efd5bb;}.cls-2{fill:#e5c6aa;}.cls-3{fill:#f4536a;}.cls-4{fill:#ee374b;}.cls-5{fill:#fff;}.cls-6{fill:#e1eaf4;}.cls-7{fill:#f0f7ff;}.cls-8{fill:#6b287c;}</style></defs><title>santa-claus-filled</title><path class="cls-1" d="M93.33,261.33H82.67A21.33,21.33,0,0,1,61.33,240h0a21.33,21.33,0,0,1,21.33-21.33H93.33Z"/><path class="cls-1" d="M370.67,261.33h10.67A21.33,21.33,0,0,0,402.67,240h0a21.33,21.33,0,0,0-21.33-21.33H370.67Z"/><rect class="cls-1" x="93.33" y="186.67" width="277.33" height="138.67"/><polygon class="cls-2" points="93.33 186.67 93.33 213.33 333.33 213.33 333.33 325.33 370.67 325.33 370.67 186.67 93.33 186.67"/><path class="cls-3" d="M432.59,84.32C401.07,40.37,341,10.67,272,10.67c-101.6,0-184,64.48-184,144H386.67V85.33h42.67Z"/><path class="cls-4" d="M386.67,85.33h25.43A228.59,228.59,0,0,0,381.33,64c-64-37.33-96-5.33-74.67,26.67S280,133.33,280,133.33l-10.67,21.33H386.67Z"/><rect class="cls-5" x="66.67" y="122.67" width="330.67" height="64" rx="32" ry="32"/><path class="cls-6" d="M397.33,154.67a32,32,0,0,1-32,32h-16v-64h16A32,32,0,0,1,397.33,154.67Z"/><circle class="cls-5" cx="408" cy="90.67" r="42.67"/><path class="cls-6" d="M409.83,48.09a32,32,0,1,1-44.4,44.4,42.64,42.64,0,1,0,44.4-44.4Z"/><path class="cls-7" d="M77.33,304c23.73.66,49.17-17,74.67-23.75C205.33,266.1,232,308,232,308s26.67-41.92,80-27.78c25.49,6.74,50.93,24.41,74.67,23.75v42.67c0,69.33-69.25,154.67-154.67,154.67h0c-85.42,0-154.67-85.33-154.67-154.67Z"/><path class="cls-6" d="M386.67,304v42.67c0,69.33-69.25,154.67-154.67,154.67a129.42,129.42,0,0,1-21.87-1.91C285.71,486,344,401.6,344,331.94V292.37C358.58,298.61,372.91,304.38,386.67,304Z"/><circle class="cls-3" cx="232" cy="293.33" r="26.67"/><path class="cls-8" d="M147.21,59.57a10.62,10.62,0,0,0,6.27-2,167.67,167.67,0,0,1,18.91-11.88,10.67,10.67,0,0,0-10.16-18.76,189.13,189.13,0,0,0-21.31,13.4,10.67,10.67,0,0,0,6.29,19.29Z"/><path class="cls-8" d="M461.33,90.67A53.34,53.34,0,0,0,399.74,38C364.8,13.9,319.57,0,272,0a237.13,237.13,0,0,0-75.49,12.07,10.67,10.67,0,0,0,6.78,20.23,215.82,215.82,0,0,1,68.71-11c38.1,0,74.41,9.68,103.95,26.74a53.66,53.66,0,0,0-16.41,20.37,74.14,74.14,0,0,0-36.87-9.78,10.67,10.67,0,0,0,0,21.33,53,53,0,0,1,32,10.73A52.92,52.92,0,0,0,359.14,112H107.78a123.25,123.25,0,0,1,19.91-31.09,10.67,10.67,0,0,0-16.11-14,141.24,141.24,0,0,0-27.66,47.7,42.66,42.66,0,0,0-1.24,79.57V208a32,32,0,1,0,0,64v21.1a42.36,42.36,0,0,1-5,.24,10.29,10.29,0,0,0-7.72,3A10.66,10.66,0,0,0,66.67,304v42.67c0,36.95,18,78.3,48.15,110.64C147.77,492.58,189.38,512,232,512c32.56,0,64.81-11.45,93.29-33.11a10.67,10.67,0,0,0-12.92-17c-24.73,18.81-52.52,28.76-80.37,28.76-36.65,0-72.72-17-101.58-47.92C103.85,414.27,88,378.35,88,346.67V314c13.21-1.94,26.24-7.53,38.93-13,9.22-4,18.75-8,27.81-10.43,16.24-4.32,29.55-2.65,40,1.3,0,.48,0,1,0,1.46a37.33,37.33,0,0,0,74.67,0c0-.49,0-1,0-1.46,10.42-3.95,23.74-5.61,40-1.29,9,2.39,18.57,6.47,27.79,10.42,12.69,5.44,25.72,11,38.93,13v32.7c0,14.44-3.41,30.25-9.85,45.71a10.67,10.67,0,1,0,19.7,8.21c7.62-18.3,11.48-36.44,11.48-53.92V304a10.66,10.66,0,0,0-3.23-7.65,10.41,10.41,0,0,0-7.72-3,43.85,43.85,0,0,1-5-.26V272a32,32,0,0,0,0-64V194.21A42.67,42.67,0,0,0,406.64,144l1.36,0A53.4,53.4,0,0,0,461.33,90.67Zm-21.33,0a32,32,0,1,1-32-32A32,32,0,0,1,440,90.67ZM72,240a10.68,10.68,0,0,1,10.67-10.67v21.33A10.68,10.68,0,0,1,72,240Zm160,69.33a16,16,0,1,1,16-16A16,16,0,0,1,232,309.33Zm113.47-27.94c-9.93-4.26-20.2-8.66-30.73-11.43-20.32-5.4-37.92-3.47-52.29,1.82a37.28,37.28,0,0,0-60.9,0c-14.36-5.29-31.95-7.22-52.28-1.81-10.56,2.78-20.82,7.18-30.76,11.44-4.95,2.12-9.8,4.18-14.53,6v-90H360v90C355.27,285.57,350.43,283.52,345.47,281.39ZM392,240a10.68,10.68,0,0,1-10.67,10.67V229.33A10.68,10.68,0,0,1,392,240Zm-26.67-64H98.67a21.33,21.33,0,1,1,0-42.67H365.33a21.33,21.33,0,1,1,0,42.67Z"/><circle class="cls-8" cx="178.67" cy="234.67" r="10.67"/><circle class="cls-8" cx="285.33" cy="234.67" r="10.67"/><path class="cls-8" d="M364.09,420.27a10.67,10.67,0,0,0-14.81,2.89,150.57,150.57,0,0,1-11.55,14.93,10.67,10.67,0,0,0,16.05,14.05A172.1,172.1,0,0,0,367,435.08,10.67,10.67,0,0,0,364.09,420.27Z"/><path class="cls-8" d="M256.94,350.68a31.95,31.95,0,0,1-49.89,0A10.67,10.67,0,1,0,190.38,364a53.28,53.28,0,0,0,83.24,0,10.67,10.67,0,1,0-16.68-13.3Z"/></svg>