<svg width="729" height="747" viewBox="0 0 729 747" fill="none" xmlns="http://www.w3.org/2000/svg">
<path d="M-265.762 371C-265.762 255.667 -241.428 165 -192.762 99C-143.428 33 -67.7617 -3.86238e-05 34.2383 -3.86238e-05C135.572 -3.86238e-05 210.905 33.3333 260.238 100C309.572 166 334.238 256.333 334.238 371C334.238 486.333 309.572 577.333 260.238 644C210.905 710 135.572 743 34.2383 743C-67.7617 743 -143.428 710 -192.762 644C-241.428 577.333 -265.762 486.333 -265.762 371ZM115.238 371C115.238 317.667 109.905 277.667 99.2383 251C88.5716 223.667 66.905 210 34.2383 210C0.904957 210 -21.095 223.667 -31.7617 251C-42.4284 277.667 -47.7617 317.667 -47.7617 371C-47.7617 425 -42.4284 465.667 -31.7617 493C-21.095 519.667 0.904957 533 34.2383 533C66.905 533 88.5716 519.667 99.2383 493C109.905 465.667 115.238 425 115.238 371ZM389.348 224V16H728.348V747H495.348V224H389.348Z" fill="#F2F2F2"/>
</svg>
