<svg width="981" height="743" viewBox="0 0 981 743" fill="none" xmlns="http://www.w3.org/2000/svg">
<path d="M0.242189 371C0.242189 255.667 24.5755 165 73.2422 99C122.576 33 198.242 -3.86238e-05 300.242 -3.86238e-05C401.576 -3.86238e-05 476.909 33.3333 526.242 100C575.576 166 600.242 256.333 600.242 371C600.242 486.333 575.576 577.333 526.242 644C476.909 710 401.576 743 300.242 743C198.242 743 122.576 710 73.2422 644C24.5755 577.333 0.242189 486.333 0.242189 371ZM381.242 371C381.242 317.667 375.909 277.667 365.242 251C354.576 223.667 332.909 210 300.242 210C266.909 210 244.909 223.667 234.242 251C223.576 277.667 218.242 317.667 218.242 371C218.242 425 223.576 465.667 234.242 493C244.909 519.667 266.909 533 300.242 533C332.909 533 354.576 519.667 365.242 493C375.909 465.667 381.242 425 381.242 371ZM673.352 570C762.685 503.333 833.352 443 885.352 389C937.352 334.333 963.352 283.333 963.352 236C963.352 220 959.685 207.667 952.352 199C945.685 190.333 936.685 186 925.352 186C912.018 186 901.352 193 893.352 207C886.018 220.333 883.352 241 885.352 269H670.352C672.352 207 685.685 156 710.352 116C735.685 76 768.352 46.6666 808.352 28C848.352 9.33329 892.352 -3.86238e-05 940.352 -3.86238e-05C1025.68 -3.86238e-05 1088.02 20.6666 1127.35 61.9999C1167.35 102.667 1187.35 155 1187.35 219C1187.35 286.333 1165.68 349.667 1122.35 409C1079.68 467.667 1026.02 517.333 961.352 558H1190.35V737H673.352V570Z" fill="#F2F2F2"/>
</svg>
