<svg width="836" height="754" viewBox="0 0 836 754" fill="none" xmlns="http://www.w3.org/2000/svg">
<path d="M-373.672 371C-373.672 255.667 -349.339 165 -300.672 99C-251.339 33 -175.672 -3.86238e-05 -73.6719 -3.86238e-05C27.6615 -3.86238e-05 102.995 33.3333 152.328 100C201.661 166 226.328 256.333 226.328 371C226.328 486.333 201.661 577.333 152.328 644C102.995 710 27.6615 743 -73.6719 743C-175.672 743 -251.339 710 -300.672 644C-349.339 577.333 -373.672 486.333 -373.672 371ZM7.32814 371C7.32814 317.667 1.99481 277.667 -8.67186 251C-19.3385 223.667 -41.0052 210 -73.6719 210C-107.005 210 -129.005 223.667 -139.672 251C-150.339 277.667 -155.672 317.667 -155.672 371C-155.672 425 -150.339 465.667 -139.672 493C-129.005 519.667 -107.005 533 -73.6719 533C-41.0052 533 -19.3385 519.667 -8.67186 493C1.99481 465.667 7.32814 425 7.32814 371ZM316.438 245C318.438 165.667 341.438 105 385.438 63C430.104 21 493.104 -3.86238e-05 574.438 -3.86238e-05C627.104 -3.86238e-05 672.104 8.99996 709.438 27C746.771 45 774.771 69.3333 793.438 100C812.771 130.667 822.437 165.333 822.437 204C822.437 250.667 811.438 287.333 789.438 314C767.438 340 742.771 357.667 715.438 367V371C795.438 401 835.438 456.667 835.438 538C835.438 580.667 825.438 618.333 805.438 651C785.438 683.667 756.771 709 719.438 727C682.771 745 639.104 754 588.438 754C501.771 754 433.771 733.333 384.438 692C335.104 650.667 309.771 586 308.438 498H524.438C523.104 522 526.438 540.333 534.438 553C543.104 565 557.771 571 578.438 571C590.438 571 600.438 566.667 608.438 558C616.438 548.667 620.438 536.667 620.438 522C620.438 503.333 614.104 489.333 601.438 480C589.438 470 568.771 465 539.438 465H502.438V286H538.438C583.771 288.667 606.438 270.667 606.438 232C606.438 215.333 602.771 203 595.438 195C588.771 187 580.104 183 569.438 183C544.771 183 532.438 203.667 532.438 245H316.438Z" fill="#F2F2F2"/>
</svg>
