<svg width="1050" height="747" viewBox="0 0 1050 747" fill="none" xmlns="http://www.w3.org/2000/svg">
<path d="M0.394533 371C0.394533 255.667 24.7279 165 73.3945 99C122.728 33 198.395 -3.86238e-05 300.395 -3.86238e-05C401.728 -3.86238e-05 477.061 33.3333 526.395 100C575.728 166 600.395 256.333 600.395 371C600.395 486.333 575.728 577.333 526.395 644C477.061 710 401.728 743 300.395 743C198.395 743 122.728 710 73.3945 644C24.7279 577.333 0.394533 486.333 0.394533 371ZM381.395 371C381.395 317.667 376.061 277.667 365.395 251C354.728 223.667 333.061 210 300.395 210C267.061 210 245.061 223.667 234.395 251C223.728 277.667 218.395 317.667 218.395 371C218.395 425 223.728 465.667 234.395 493C245.061 519.667 267.061 533 300.395 533C333.061 533 354.728 519.667 365.395 493C376.061 465.667 381.395 425 381.395 371ZM697.504 637V452L995.504 27H1234.5V445H1306.5V637H1234.5V747H1010.5V637H697.504ZM1028.5 280L920.504 445H1028.5V280Z" fill="#F2F2F2"/>
</svg>
