<svg width="40" height="40" viewBox="0 0 40 40" fill="none" xmlns="http://www.w3.org/2000/svg">
<path d="M13.379 31.0469C13.379 31.2031 13.1935 31.3281 12.9597 31.3281C12.6935 31.3516 12.5081 31.2266 12.5081 31.0469C12.5081 30.8906 12.6935 30.7656 12.9274 30.7656C13.1694 30.7422 13.379 30.8672 13.379 31.0469ZM10.871 30.6953C10.8145 30.8516 10.9758 31.0312 11.2177 31.0781C11.4274 31.1562 11.6694 31.0781 11.7177 30.9219C11.7661 30.7656 11.6129 30.5859 11.371 30.5156C11.1613 30.4609 10.9274 30.5391 10.871 30.6953ZM14.4355 30.5625C14.2016 30.6172 14.0403 30.7656 14.0645 30.9453C14.0887 31.1016 14.2984 31.2031 14.5403 31.1484C14.7742 31.0938 14.9355 30.9453 14.9113 30.7891C14.8871 30.6406 14.6694 30.5391 14.4355 30.5625ZM19.7419 0.625C8.55645 0.625 0 8.85156 0 19.6875C0 28.3516 5.62903 35.7656 13.6694 38.375C14.7016 38.5547 15.0645 37.9375 15.0645 37.4297C15.0645 36.9453 15.0403 34.2734 15.0403 32.6328C15.0403 32.6328 9.39516 33.8047 8.20968 30.3047C8.20968 30.3047 7.29032 28.0312 5.96774 27.4453C5.96774 27.4453 4.12097 26.2188 6.09677 26.2422C6.09677 26.2422 8.10484 26.3984 9.20968 28.2578C10.9758 31.2734 13.9355 30.4062 15.0887 29.8906C15.2742 28.6406 15.7984 27.7734 16.379 27.2578C11.871 26.7734 7.32258 26.1406 7.32258 18.625C7.32258 16.4766 7.93548 15.3984 9.22581 14.0234C9.01613 13.5156 8.33064 11.4219 9.43548 8.71875C11.121 8.21094 15 10.8281 15 10.8281C16.6129 10.3906 18.3468 10.1641 20.0645 10.1641C21.7823 10.1641 23.5161 10.3906 25.129 10.8281C25.129 10.8281 29.0081 8.20312 30.6935 8.71875C31.7984 11.4297 31.1129 13.5156 30.9032 14.0234C32.1936 15.4062 32.9839 16.4844 32.9839 18.625C32.9839 26.1641 28.2339 26.7656 23.7258 27.2578C24.4677 27.875 25.0968 29.0469 25.0968 30.8828C25.0968 33.5156 25.0726 36.7734 25.0726 37.4141C25.0726 37.9219 25.4435 38.5391 26.4677 38.3594C34.5323 35.7656 40 28.3516 40 19.6875C40 8.85156 30.9274 0.625 19.7419 0.625ZM7.83871 27.5703C7.73387 27.6484 7.75806 27.8281 7.89516 27.9766C8.02419 28.1016 8.20968 28.1562 8.31452 28.0547C8.41935 27.9766 8.39516 27.7969 8.25806 27.6484C8.12903 27.5234 7.94355 27.4688 7.83871 27.5703ZM6.96774 26.9375C6.91129 27.0391 6.99194 27.1641 7.15323 27.2422C7.28226 27.3203 7.44355 27.2969 7.5 27.1875C7.55645 27.0859 7.47581 26.9609 7.31452 26.8828C7.15323 26.8359 7.02419 26.8594 6.96774 26.9375ZM9.58065 29.7188C9.45161 29.8203 9.5 30.0547 9.68548 30.2031C9.87097 30.3828 10.1048 30.4062 10.2097 30.2812C10.3145 30.1797 10.2661 29.9453 10.1048 29.7969C9.92742 29.6172 9.68548 29.5938 9.58065 29.7188ZM8.66129 28.5703C8.53226 28.6484 8.53226 28.8516 8.66129 29.0312C8.79032 29.2109 9.00806 29.2891 9.1129 29.2109C9.24193 29.1094 9.24193 28.9062 9.1129 28.7266C9 28.5469 8.79032 28.4688 8.66129 28.5703Z" fill="black"/>
</svg>
