<svg width="1914" height="957" viewBox="0 0 1914 957" fill="none" xmlns="http://www.w3.org/2000/svg">
<path fill-rule="evenodd" clip-rule="evenodd" d="M240.125 0H0V240H240.125V0ZM120.064 220C175.321 220 220.116 175.228 220.116 120C220.116 64.7715 175.321 20 120.064 20C64.8065 20 20.0117 64.7715 20.0117 120C20.0117 175.228 64.8065 220 120.064 220Z" fill="white"/>
<path fill-rule="evenodd" clip-rule="evenodd" d="M240.125 239H0V479H240.125V239ZM120.064 459C175.321 459 220.116 414.228 220.116 359C220.116 303.772 175.321 259 120.064 259C64.8065 259 20.0117 303.772 20.0117 359C20.0117 414.228 64.8065 459 120.064 459Z" fill="white"/>
<path fill-rule="evenodd" clip-rule="evenodd" d="M240.125 478H0V718H240.125V478ZM120.064 698C175.321 698 220.116 653.228 220.116 598C220.116 542.772 175.321 498 120.064 498C64.8065 498 20.0117 542.772 20.0117 598C20.0117 653.228 64.8065 698 120.064 698Z" fill="white"/>
<path fill-rule="evenodd" clip-rule="evenodd" d="M240.125 717H0V957H240.125V717ZM119.064 937C174.321 937 219.116 892.228 219.116 837C219.116 781.772 174.321 737 119.064 737C63.8065 737 19.0117 781.772 19.0117 837C19.0117 892.228 63.8065 937 119.064 937Z" fill="white"/>
<path fill-rule="evenodd" clip-rule="evenodd" d="M479.25 0H239.125V240H479.25V0ZM359.189 220C414.446 220 459.241 175.228 459.241 120C459.241 64.7715 414.446 20 359.189 20C303.932 20 259.137 64.7715 259.137 120C259.137 175.228 303.932 220 359.189 220Z" fill="white"/>
<path fill-rule="evenodd" clip-rule="evenodd" d="M479.25 239H239.125V479H479.25V239ZM359.189 459C414.446 459 459.241 414.228 459.241 359C459.241 303.772 414.446 259 359.189 259C303.932 259 259.137 303.772 259.137 359C259.137 414.228 303.932 459 359.189 459Z" fill="white"/>
<path fill-rule="evenodd" clip-rule="evenodd" d="M479.25 478H239.125V718H479.25V478ZM359.189 698C414.446 698 459.241 653.228 459.241 598C459.241 542.772 414.446 498 359.189 498C303.932 498 259.137 542.772 259.137 598C259.137 653.228 303.932 698 359.189 698Z" fill="white"/>
<path fill-rule="evenodd" clip-rule="evenodd" d="M479.25 717H239.125V957H479.25V717ZM359.189 937C414.446 937 459.241 892.228 459.241 837C459.241 781.772 414.446 737 359.189 737C303.932 737 259.137 781.772 259.137 837C259.137 892.228 303.932 937 359.189 937Z" fill="white"/>
<path fill-rule="evenodd" clip-rule="evenodd" d="M718.375 0H478.25V240H718.375V0ZM598.314 220C653.571 220 698.366 175.228 698.366 120C698.366 64.7715 653.571 20 598.314 20C543.057 20 498.262 64.7715 498.262 120C498.262 175.228 543.057 220 598.314 220Z" fill="white"/>
<path fill-rule="evenodd" clip-rule="evenodd" d="M718.375 239H478.25V479H718.375V239ZM598.314 459C653.571 459 698.366 414.228 698.366 359C698.366 303.772 653.571 259 598.314 259C543.057 259 498.262 303.772 498.262 359C498.262 414.228 543.057 459 598.314 459Z" fill="white"/>
<path fill-rule="evenodd" clip-rule="evenodd" d="M718.375 478H478.25V718H718.375V478ZM598.314 698C653.571 698 698.366 653.228 698.366 598C698.366 542.772 653.571 498 598.314 498C543.057 498 498.262 542.772 498.262 598C498.262 653.228 543.057 698 598.314 698Z" fill="white"/>
<path fill-rule="evenodd" clip-rule="evenodd" d="M718.375 717H478.25V957H718.375V717ZM598.314 937C653.571 937 698.366 892.228 698.366 837C698.366 781.772 653.571 737 598.314 737C543.057 737 498.262 781.772 498.262 837C498.262 892.228 543.057 937 598.314 937Z" fill="white"/>
<path fill-rule="evenodd" clip-rule="evenodd" d="M957.5 0H717.375V240H957.5V0ZM837.439 220C892.696 220 937.491 175.228 937.491 120C937.491 64.7715 892.696 20 837.439 20C782.182 20 737.387 64.7715 737.387 120C737.387 175.228 782.182 220 837.439 220Z" fill="white"/>
<path fill-rule="evenodd" clip-rule="evenodd" d="M957.5 239H717.375V479H957.5V239ZM837.439 459C892.696 459 937.491 414.228 937.491 359C937.491 303.772 892.696 259 837.439 259C782.182 259 737.387 303.772 737.387 359C737.387 414.228 782.182 459 837.439 459Z" fill="white"/>
<path fill-rule="evenodd" clip-rule="evenodd" d="M957.5 478H717.375V718H957.5V478ZM837.439 698C892.696 698 937.491 653.228 937.491 598C937.491 542.772 892.696 498 837.439 498C782.182 498 737.387 542.772 737.387 598C737.387 653.228 782.182 698 837.439 698Z" fill="white"/>
<path fill-rule="evenodd" clip-rule="evenodd" d="M957.5 717H717.375V957H957.5V717ZM837.439 937C892.696 937 937.491 892.228 937.491 837C937.491 781.772 892.696 737 837.439 737C782.182 737 737.387 781.772 737.387 837C737.387 892.228 782.182 937 837.439 937Z" fill="white"/>
<path fill-rule="evenodd" clip-rule="evenodd" d="M1196.62 0H956.5V240H1196.62V0ZM1076.56 220C1131.82 220 1176.62 175.228 1176.62 120C1176.62 64.7715 1131.82 20 1076.56 20C1021.31 20 976.512 64.7715 976.512 120C976.512 175.228 1021.31 220 1076.56 220Z" fill="white"/>
<path fill-rule="evenodd" clip-rule="evenodd" d="M1196.62 239H956.5V479H1196.62V239ZM1076.56 459C1131.82 459 1176.62 414.228 1176.62 359C1176.62 303.772 1131.82 259 1076.56 259C1021.31 259 976.512 303.772 976.512 359C976.512 414.228 1021.31 459 1076.56 459Z" fill="white"/>
<path fill-rule="evenodd" clip-rule="evenodd" d="M1196.62 478H956.5V718H1196.62V478ZM1076.56 698C1131.82 698 1176.62 653.228 1176.62 598C1176.62 542.772 1131.82 498 1076.56 498C1021.31 498 976.512 542.772 976.512 598C976.512 653.228 1021.31 698 1076.56 698Z" fill="white"/>
<path fill-rule="evenodd" clip-rule="evenodd" d="M1196.62 717H956.5V957H1196.62V717ZM1076.56 937C1131.82 937 1176.62 892.228 1176.62 837C1176.62 781.772 1131.82 737 1076.56 737C1021.31 737 976.512 781.772 976.512 837C976.512 892.228 1021.31 937 1076.56 937Z" fill="white"/>
<path fill-rule="evenodd" clip-rule="evenodd" d="M1435.75 0H1195.62V240H1435.75V0ZM1315.69 220C1370.95 220 1415.74 175.228 1415.74 120C1415.74 64.7715 1370.95 20 1315.69 20C1260.43 20 1215.64 64.7715 1215.64 120C1215.64 175.228 1260.43 220 1315.69 220Z" fill="white"/>
<path fill-rule="evenodd" clip-rule="evenodd" d="M1435.75 239H1195.62V479H1435.75V239ZM1315.69 459C1370.95 459 1415.74 414.228 1415.74 359C1415.74 303.772 1370.95 259 1315.69 259C1260.43 259 1215.64 303.772 1215.64 359C1215.64 414.228 1260.43 459 1315.69 459Z" fill="white"/>
<path fill-rule="evenodd" clip-rule="evenodd" d="M1435.75 478H1195.62V718H1435.75V478ZM1315.69 698C1370.95 698 1415.74 653.228 1415.74 598C1415.74 542.772 1370.95 498 1315.69 498C1260.43 498 1215.64 542.772 1215.64 598C1215.64 653.228 1260.43 698 1315.69 698Z" fill="white"/>
<path fill-rule="evenodd" clip-rule="evenodd" d="M1435.75 717H1195.62V957H1435.75V717ZM1315.69 937C1370.95 937 1415.74 892.228 1415.74 837C1415.74 781.772 1370.95 737 1315.69 737C1260.43 737 1215.64 781.772 1215.64 837C1215.64 892.228 1260.43 937 1315.69 937Z" fill="white"/>
<path fill-rule="evenodd" clip-rule="evenodd" d="M1674.87 0H1434.75V240H1674.87V0ZM1554.81 220C1610.07 220 1654.87 175.228 1654.87 120C1654.87 64.7715 1610.07 20 1554.81 20C1499.56 20 1454.76 64.7715 1454.76 120C1454.76 175.228 1499.56 220 1554.81 220Z" fill="white"/>
<path fill-rule="evenodd" clip-rule="evenodd" d="M1674.87 239H1434.75V479H1674.87V239ZM1554.81 459C1610.07 459 1654.87 414.228 1654.87 359C1654.87 303.772 1610.07 259 1554.81 259C1499.56 259 1454.76 303.772 1454.76 359C1454.76 414.228 1499.56 459 1554.81 459Z" fill="white"/>
<path fill-rule="evenodd" clip-rule="evenodd" d="M1674.87 478H1434.75V718H1674.87V478ZM1554.81 698C1610.07 698 1654.87 653.228 1654.87 598C1654.87 542.772 1610.07 498 1554.81 498C1499.56 498 1454.76 542.772 1454.76 598C1454.76 653.228 1499.56 698 1554.81 698Z" fill="white"/>
<path fill-rule="evenodd" clip-rule="evenodd" d="M1674.87 717H1434.75V957H1674.87V717ZM1554.81 937C1610.07 937 1654.87 892.228 1654.87 837C1654.87 781.772 1610.07 737 1554.81 737C1499.56 737 1454.76 781.772 1454.76 837C1454.76 892.228 1499.56 937 1554.81 937Z" fill="white"/>
<path fill-rule="evenodd" clip-rule="evenodd" d="M1913 0H1672.88V240H1913V0ZM1793.94 220C1849.2 220 1893.99 175.228 1893.99 120C1893.99 64.7715 1849.2 20 1793.94 20C1738.68 20 1693.89 64.7715 1693.89 120C1693.89 175.228 1738.68 220 1793.94 220Z" fill="white"/>
<path fill-rule="evenodd" clip-rule="evenodd" d="M1913 239H1672.88V479H1913V239ZM1793.94 459C1849.2 459 1893.99 414.228 1893.99 359C1893.99 303.772 1849.2 259 1793.94 259C1738.68 259 1693.89 303.772 1693.89 359C1693.89 414.228 1738.68 459 1793.94 459Z" fill="white"/>
<path fill-rule="evenodd" clip-rule="evenodd" d="M1913 478H1672.88V718H1913V478ZM1792.94 698C1848.2 698 1892.99 653.228 1892.99 598C1892.99 542.772 1848.2 498 1792.94 498C1737.68 498 1692.89 542.772 1692.89 598C1692.89 653.228 1737.68 698 1792.94 698Z" fill="white"/>
<path fill-rule="evenodd" clip-rule="evenodd" d="M1913.12 717H1673V957H1913.12V717ZM1793.06 937C1848.32 937 1893.12 892.228 1893.12 837C1893.12 781.772 1848.32 737 1793.06 737C1737.81 737 1693.01 781.772 1693.01 837C1693.01 892.228 1737.81 937 1793.06 937Z" fill="white"/>
</svg>
